SplineFontDB: 3.2
FontName: mem-prop-5x6
FullName: mem proportional 5x6
FamilyName: mem proportional 5x6
Weight: Regular
Copyright: Copyright (c) 2020, 
Version: 5.0.0
ItalicAngle: 0
UnderlinePosition: -100
UnderlineWidth: 50
Ascent: 800
Descent: 367
InvalidEm: 0
LayerCount: 2
Layer: 0 0 "Back" 1
Layer: 1 0 "Fore" 0
OS2Version: 0
OS2_WeightWidthSlopeOnly: 0
OS2_UseTypoMetrics: 1
CreationTime: 0
ModificationTime: 0
OS2TypoAscent: 0
OS2TypoAOffset: 1
OS2TypoDescent: 0
OS2TypoDOffset: 1
OS2TypoLinegap: 0
OS2WinAscent: 0
OS2WinAOffset: 1
OS2WinDescent: 0
OS2WinDOffset: 1
HheadAscent: 0
HheadAOffset: 1
HheadDescent: 0
HheadDOffset: 1
OS2Vendor: 'PfEd'
Lookup: 258 0 0 "kern" { "kern-lut"  } ['kern' ('dflt' <'dflt' > ) ]
DEI: 91125
DesignSize: 70
Encoding: ISO8859-1
UnicodeInterp: none
NameList: AGL For New Fonts
DisplaySize: -48
AntiAlias: 1
FitToEm: 0
OnlyBitmaps: 1
BeginChars: 256 123

StartChar: uni0001
Encoding: 1 1 1
Width: 1000
VWidth: 0
Flags: W
LayerCount: 2
Fore
SplineSet
166.666992188 550 m 1
 166.666992188 633.333007812 l 1
 250 633.333007812 l 1
 333.333007812 633.333007812 l 1
 333.333007812 550 l 1
 333.333007812 466.666992188 l 1
 250 466.666992188 l 1
 166.666992188 466.666992188 l 1
 166.666992188 550 l 1
500 550 m 1
 500 633.333007812 l 1
 583.333007812 633.333007812 l 1
 666.666992188 633.333007812 l 1
 666.666992188 550 l 1
 666.666992188 466.666992188 l 1
 583.333007812 466.666992188 l 1
 500 466.666992188 l 1
 500 550 l 1
333.333007812 216.666992188 m 1
 333.333007812 300 l 1
 416.666992188 300 l 1
 500 300 l 1
 500 216.666992188 l 1
 500 133.333007812 l 1
 416.666992188 133.333007812 l 1
 333.333007812 133.333007812 l 1
 333.333007812 216.666992188 l 1
0 -33.3330078125 m 1
 0 133.333007812 l 1
 83.3330078125 133.333007812 l 1
 166.666992188 133.333007812 l 1
 166.666992188 50 l 1
 166.666992188 -33.3330078125 l 1
 416.666992188 -33.3330078125 l 1
 666.666992188 -33.3330078125 l 1
 666.666992188 50 l 1
 666.666992188 133.333007812 l 1
 750 133.333007812 l 1
 833.333007812 133.333007812 l 1
 833.333007812 -33.3330078125 l 1
 833.333007812 -200 l 1
 416.666992188 -200 l 1
 0 -200 l 1
 0 -33.3330078125 l 1
EndSplineSet
PairPos2: "kern-lut" uni0009 dx=0 dy=0 dh=-167 dv=0 dx=0 dy=0 dh=0 dv=0
PairPos2: "kern-lut" uni000A dx=0 dy=0 dh=-167 dv=0 dx=0 dy=0 dh=0 dv=0
EndChar

StartChar: uni0002
Encoding: 2 2 2
Width: 1000
VWidth: 0
Flags: W
LayerCount: 2
Fore
SplineSet
0 466.666992188 m 1
 0 800 l 1
 416.666992188 800 l 1
 833.333007812 800 l 1
 833.333007812 466.666992188 l 1
 833.333007812 133.333007812 l 1
 750 133.333007812 l 1
 666.666992188 133.333007812 l 1
 666.666992188 50 l 1
 666.666992188 -33.3330078125 l 1
 416.666992188 -33.3330078125 l 1
 166.666992188 -33.3330078125 l 1
 166.666992188 50 l 1
 166.666992188 133.333007812 l 1
 83.3330078125 133.333007812 l 1
 0 133.333007812 l 1
 0 466.666992188 l 1
333.333007812 550 m 1
 333.333007812 633.333007812 l 1
 250 633.333007812 l 1
 166.666992188 633.333007812 l 1
 166.666992188 550 l 1
 166.666992188 466.666992188 l 1
 250 466.666992188 l 1
 333.333007812 466.666992188 l 1
 333.333007812 550 l 1
666.666992188 550 m 1
 666.666992188 633.333007812 l 1
 583.333007812 633.333007812 l 1
 500 633.333007812 l 1
 500 550 l 1
 500 466.666992188 l 1
 583.333007812 466.666992188 l 1
 666.666992188 466.666992188 l 1
 666.666992188 550 l 1
500 216.666992188 m 1
 500 300 l 1
 416.666992188 300 l 1
 333.333007812 300 l 1
 333.333007812 216.666992188 l 1
 333.333007812 133.333007812 l 1
 416.666992188 133.333007812 l 1
 500 133.333007812 l 1
 500 216.666992188 l 1
EndSplineSet
PairPos2: "kern-lut" uni0009 dx=0 dy=0 dh=-167 dv=0 dx=0 dy=0 dh=0 dv=0
PairPos2: "kern-lut" uni000A dx=0 dy=0 dh=-167 dv=0 dx=0 dy=0 dh=0 dv=0
EndChar

StartChar: uni0003
Encoding: 3 3 3
Width: 1000
VWidth: 0
Flags: W
LayerCount: 2
Fore
SplineSet
0 466.666992188 m 1
 0 800 l 1
 166.666992188 800 l 1
 333.333007812 800 l 1
 333.333007812 716.666992188 l 1
 333.333007812 633.333007812 l 1
 416.666992188 633.333007812 l 1
 500 633.333007812 l 1
 500 716.666992188 l 1
 500 800 l 1
 666.666992188 800 l 1
 833.333007812 800 l 1
 833.333007812 466.666992188 l 1
 833.333007812 133.333007812 l 1
 750 133.333007812 l 1
 666.666992188 133.333007812 l 1
 666.666992188 50 l 1
 666.666992188 -33.3330078125 l 1
 583.333007812 -33.3330078125 l 1
 500 -33.3330078125 l 1
 500 -116.666992188 l 1
 500 -200 l 1
 416.666992188 -200 l 1
 333.333007812 -200 l 1
 333.333007812 -116.666992188 l 1
 333.333007812 -33.3330078125 l 1
 250 -33.3330078125 l 1
 166.666992188 -33.3330078125 l 1
 166.666992188 50 l 1
 166.666992188 133.333007812 l 1
 83.3330078125 133.333007812 l 1
 0 133.333007812 l 1
 0 466.666992188 l 1
EndSplineSet
PairPos2: "kern-lut" uni0009 dx=0 dy=0 dh=-167 dv=0 dx=0 dy=0 dh=0 dv=0
PairPos2: "kern-lut" uni000A dx=0 dy=0 dh=-167 dv=0 dx=0 dy=0 dh=0 dv=0
EndChar

StartChar: uni0004
Encoding: 4 4 4
Width: 1000
VWidth: 0
Flags: W
LayerCount: 2
Fore
SplineSet
333.333007812 716.666992188 m 1
 333.333007812 800 l 1
 416.666992188 800 l 1
 500 800 l 1
 500 716.666992188 l 1
 500 633.333007812 l 1
 583.333007812 633.333007812 l 1
 666.666992188 633.333007812 l 1
 666.666992188 550 l 1
 666.666992188 466.666992188 l 1
 750 466.666992188 l 1
 833.333007812 466.666992188 l 1
 833.333007812 300 l 1
 833.333007812 133.333007812 l 1
 750 133.333007812 l 1
 666.666992188 133.333007812 l 1
 666.666992188 50 l 1
 666.666992188 -33.3330078125 l 1
 583.333007812 -33.3330078125 l 1
 500 -33.3330078125 l 1
 500 -116.666992188 l 1
 500 -200 l 1
 416.666992188 -200 l 1
 333.333007812 -200 l 1
 333.333007812 -116.666992188 l 1
 333.333007812 -33.3330078125 l 1
 250 -33.3330078125 l 1
 166.666992188 -33.3330078125 l 1
 166.666992188 50 l 1
 166.666992188 133.333007812 l 1
 83.3330078125 133.333007812 l 1
 0 133.333007812 l 1
 0 300 l 1
 0 466.666992188 l 1
 83.3330078125 466.666992188 l 1
 166.666992188 466.666992188 l 1
 166.666992188 550 l 1
 166.666992188 633.333007812 l 1
 250 633.333007812 l 1
 333.333007812 633.333007812 l 1
 333.333007812 716.666992188 l 1
EndSplineSet
PairPos2: "kern-lut" uni0009 dx=0 dy=0 dh=-167 dv=0 dx=0 dy=0 dh=0 dv=0
PairPos2: "kern-lut" uni000A dx=0 dy=0 dh=-167 dv=0 dx=0 dy=0 dh=0 dv=0
EndChar

StartChar: uni0005
Encoding: 5 5 5
Width: 1000
VWidth: 0
Flags: W
LayerCount: 2
Fore
SplineSet
166.666992188 633.333007812 m 1
 166.666992188 800 l 1
 416.666992188 800 l 1
 666.666992188 800 l 1
 666.666992188 633.333007812 l 1
 666.666992188 466.666992188 l 1
 750 466.666992188 l 1
 833.333007812 466.666992188 l 1
 833.333007812 216.666992188 l 1
 833.333007812 -33.3330078125 l 1
 666.666992188 -33.3330078125 l 1
 500 -33.3330078125 l 1
 500 -116.666992188 l 1
 500 -200 l 1
 416.666992188 -200 l 1
 333.333007812 -200 l 1
 333.333007812 -116.666992188 l 1
 333.333007812 -33.3330078125 l 1
 166.666992188 -33.3330078125 l 1
 0 -33.3330078125 l 1
 0 216.666992188 l 1
 0 466.666992188 l 1
 83.3330078125 466.666992188 l 1
 166.666992188 466.666992188 l 1
 166.666992188 633.333007812 l 1
EndSplineSet
PairPos2: "kern-lut" uni0009 dx=0 dy=0 dh=-167 dv=0 dx=0 dy=0 dh=0 dv=0
PairPos2: "kern-lut" uni000A dx=0 dy=0 dh=-167 dv=0 dx=0 dy=0 dh=0 dv=0
EndChar

StartChar: uni0006
Encoding: 6 6 6
Width: 1000
VWidth: 0
Flags: W
LayerCount: 2
Fore
SplineSet
333.333007812 716.666992188 m 1
 333.333007812 800 l 1
 416.666992188 800 l 1
 500 800 l 1
 500 716.666992188 l 1
 500 633.333007812 l 1
 583.333007812 633.333007812 l 1
 666.666992188 633.333007812 l 1
 666.666992188 550 l 1
 666.666992188 466.666992188 l 1
 750 466.666992188 l 1
 833.333007812 466.666992188 l 1
 833.333007812 216.666992188 l 1
 833.333007812 -33.3330078125 l 1
 750 -33.3330078125 l 1
 666.666992188 -33.3330078125 l 1
 666.666992188 50 l 1
 666.666992188 133.333007812 l 1
 583.333007812 133.333007812 l 1
 500 133.333007812 l 1
 500 -33.3330078125 l 1
 500 -200 l 1
 416.666992188 -200 l 1
 333.333007812 -200 l 1
 333.333007812 -33.3330078125 l 1
 333.333007812 133.333007812 l 1
 250 133.333007812 l 1
 166.666992188 133.333007812 l 1
 166.666992188 50 l 1
 166.666992188 -33.3330078125 l 1
 83.3330078125 -33.3330078125 l 1
 0 -33.3330078125 l 1
 0 216.666992188 l 1
 0 466.666992188 l 1
 83.3330078125 466.666992188 l 1
 166.666992188 466.666992188 l 1
 166.666992188 550 l 1
 166.666992188 633.333007812 l 1
 250 633.333007812 l 1
 333.333007812 633.333007812 l 1
 333.333007812 716.666992188 l 1
EndSplineSet
PairPos2: "kern-lut" uni0009 dx=0 dy=0 dh=-167 dv=0 dx=0 dy=0 dh=0 dv=0
PairPos2: "kern-lut" uni000A dx=0 dy=0 dh=-167 dv=0 dx=0 dy=0 dh=0 dv=0
EndChar

StartChar: uni0007
Encoding: 7 7 7
Width: 667
VWidth: 0
Flags: W
LayerCount: 2
Fore
SplineSet
166.666992188 383.333007812 m 1
 166.666992188 466.666992188 l 1
 250 466.666992188 l 1
 333.333007812 466.666992188 l 1
 333.333007812 383.333007812 l 1
 333.333007812 300 l 1
 250 300 l 1
 166.666992188 300 l 1
 166.666992188 383.333007812 l 1
EndSplineSet
PairPos2: "kern-lut" uni0009 dx=0 dy=0 dh=-167 dv=0 dx=0 dy=0 dh=0 dv=0
PairPos2: "kern-lut" uni000A dx=0 dy=0 dh=-167 dv=0 dx=0 dy=0 dh=0 dv=0
EndChar

StartChar: uni0008
Encoding: 8 8 8
Width: 667
VWidth: 0
Flags: W
LayerCount: 2
Fore
SplineSet
0 383.333007812 m 1
 0 800 l 1
 250 800 l 1
 500 800 l 1
 500 383.333007812 l 1
 500 -33.3330078125 l 1
 250 -33.3330078125 l 1
 0 -33.3330078125 l 1
 0 383.333007812 l 1
333.333007812 383.333007812 m 1
 333.333007812 466.666992188 l 1
 250 466.666992188 l 1
 166.666992188 466.666992188 l 1
 166.666992188 383.333007812 l 1
 166.666992188 300 l 1
 250 300 l 1
 333.333007812 300 l 1
 333.333007812 383.333007812 l 1
EndSplineSet
PairPos2: "kern-lut" uni0009 dx=0 dy=0 dh=-167 dv=0 dx=0 dy=0 dh=0 dv=0
PairPos2: "kern-lut" uni000A dx=0 dy=0 dh=-167 dv=0 dx=0 dy=0 dh=0 dv=0
EndChar

StartChar: uni0009
Encoding: 9 9 9
Width: 1000
VWidth: 0
Flags: W
LayerCount: 2
Fore
SplineSet
166.666992188 716.666992188 m 1
 166.666992188 800 l 1
 416.666992188 800 l 1
 666.666992188 800 l 1
 666.666992188 716.666992188 l 1
 666.666992188 633.333007812 l 1
 750 633.333007812 l 1
 833.333007812 633.333007812 l 1
 833.333007812 383.333007812 l 1
 833.333007812 133.333007812 l 1
 750 133.333007812 l 1
 666.666992188 133.333007812 l 1
 666.666992188 50 l 1
 666.666992188 -33.3330078125 l 1
 416.666992188 -33.3330078125 l 1
 166.666992188 -33.3330078125 l 1
 166.666992188 50 l 1
 166.666992188 133.333007812 l 1
 83.3330078125 133.333007812 l 1
 0 133.333007812 l 1
 0 383.333007812 l 1
 0 633.333007812 l 1
 83.3330078125 633.333007812 l 1
 166.666992188 633.333007812 l 1
 166.666992188 716.666992188 l 1
666.666992188 383.333007812 m 1
 666.666992188 633.333007812 l 1
 416.666992188 633.333007812 l 1
 166.666992188 633.333007812 l 1
 166.666992188 383.333007812 l 1
 166.666992188 133.333007812 l 1
 416.666992188 133.333007812 l 1
 666.666992188 133.333007812 l 1
 666.666992188 383.333007812 l 1
EndSplineSet
PairPos2: "kern-lut" uni000A dx=0 dy=0 dh=-167 dv=0 dx=0 dy=0 dh=0 dv=0
EndChar

StartChar: uni000D
Encoding: 13 13 10
Width: 1000
VWidth: 0
Flags: W
LayerCount: 2
Fore
SplineSet
333.333007812 550 m 1
 333.333007812 800 l 1
 583.333007812 800 l 1
 833.333007812 800 l 1
 833.333007812 633.333007812 l 1
 833.333007812 466.666992188 l 1
 750 466.666992188 l 1
 666.666992188 466.666992188 l 1
 666.666992188 550 l 1
 666.666992188 633.333007812 l 1
 583.333007812 633.333007812 l 1
 500 633.333007812 l 1
 500 216.666992188 l 1
 500 -200 l 1
 250 -200 l 1
 0 -200 l 1
 0 50 l 1
 0 300 l 1
 166.666992188 300 l 1
 333.333007812 300 l 1
 333.333007812 550 l 1
333.333007812 50 m 1
 333.333007812 133.333007812 l 1
 250 133.333007812 l 1
 166.666992188 133.333007812 l 1
 166.666992188 50 l 1
 166.666992188 -33.3330078125 l 1
 250 -33.3330078125 l 1
 333.333007812 -33.3330078125 l 1
 333.333007812 50 l 1
EndSplineSet
PairPos2: "kern-lut" uni000A dx=0 dy=0 dh=-167 dv=0 dx=0 dy=0 dh=0 dv=0
EndChar

StartChar: uni000E
Encoding: 14 14 11
Width: 1000
VWidth: 0
Flags: W
LayerCount: 2
Fore
SplineSet
333.333007812 550 m 1
 333.333007812 800 l 1
 583.333007812 800 l 1
 833.333007812 800 l 1
 833.333007812 300 l 1
 833.333007812 -200 l 1
 416.666992188 -200 l 1
 0 -200 l 1
 0 50 l 1
 0 300 l 1
 166.666992188 300 l 1
 333.333007812 300 l 1
 333.333007812 550 l 1
666.666992188 466.666992188 m 1
 666.666992188 633.333007812 l 1
 583.333007812 633.333007812 l 1
 500 633.333007812 l 1
 500 466.666992188 l 1
 500 300 l 1
 583.333007812 300 l 1
 666.666992188 300 l 1
 666.666992188 466.666992188 l 1
333.333007812 50 m 1
 333.333007812 133.333007812 l 1
 250 133.333007812 l 1
 166.666992188 133.333007812 l 1
 166.666992188 50 l 1
 166.666992188 -33.3330078125 l 1
 250 -33.3330078125 l 1
 333.333007812 -33.3330078125 l 1
 333.333007812 50 l 1
666.666992188 50 m 1
 666.666992188 133.333007812 l 1
 583.333007812 133.333007812 l 1
 500 133.333007812 l 1
 500 50 l 1
 500 -33.3330078125 l 1
 583.333007812 -33.3330078125 l 1
 666.666992188 -33.3330078125 l 1
 666.666992188 50 l 1
EndSplineSet
PairPos2: "kern-lut" uni000A dx=0 dy=0 dh=-167 dv=0 dx=0 dy=0 dh=0 dv=0
EndChar

StartChar: uni000F
Encoding: 15 15 12
Width: 1000
VWidth: 0
Flags: W
LayerCount: 2
Fore
SplineSet
0 716.666992188 m 1
 0 800 l 1
 83.3330078125 800 l 1
 166.666992188 800 l 1
 166.666992188 716.666992188 l 1
 166.666992188 633.333007812 l 1
 250 633.333007812 l 1
 333.333007812 633.333007812 l 1
 333.333007812 716.666992188 l 1
 333.333007812 800 l 1
 416.666992188 800 l 1
 500 800 l 1
 500 716.666992188 l 1
 500 633.333007812 l 1
 583.333007812 633.333007812 l 1
 666.666992188 633.333007812 l 1
 666.666992188 716.666992188 l 1
 666.666992188 800 l 1
 750 800 l 1
 833.333007812 800 l 1
 833.333007812 716.666992188 l 1
 833.333007812 633.333007812 l 1
 750 633.333007812 l 1
 666.666992188 633.333007812 l 1
 666.666992188 550 l 1
 666.666992188 466.666992188 l 1
 750 466.666992188 l 1
 833.333007812 466.666992188 l 1
 833.333007812 383.333007812 l 1
 833.333007812 300 l 1
 750 300 l 1
 666.666992188 300 l 1
 666.666992188 216.666992188 l 1
 666.666992188 133.333007812 l 1
 750 133.333007812 l 1
 833.333007812 133.333007812 l 1
 833.333007812 50 l 1
 833.333007812 -33.3330078125 l 1
 750 -33.3330078125 l 1
 666.666992188 -33.3330078125 l 1
 666.666992188 50 l 1
 666.666992188 133.333007812 l 1
 583.333007812 133.333007812 l 1
 500 133.333007812 l 1
 500 50 l 1
 500 -33.3330078125 l 1
 416.666992188 -33.3330078125 l 1
 333.333007812 -33.3330078125 l 1
 333.333007812 50 l 1
 333.333007812 133.333007812 l 1
 250 133.333007812 l 1
 166.666992188 133.333007812 l 1
 166.666992188 50 l 1
 166.666992188 -33.3330078125 l 1
 83.3330078125 -33.3330078125 l 1
 0 -33.3330078125 l 1
 0 50 l 1
 0 133.333007812 l 1
 83.3330078125 133.333007812 l 1
 166.666992188 133.333007812 l 1
 166.666992188 216.666992188 l 1
 166.666992188 300 l 1
 83.3330078125 300 l 1
 0 300 l 1
 0 383.333007812 l 1
 0 466.666992188 l 1
 83.3330078125 466.666992188 l 1
 166.666992188 466.666992188 l 1
 166.666992188 550 l 1
 166.666992188 633.333007812 l 1
 83.3330078125 633.333007812 l 1
 0 633.333007812 l 1
 0 716.666992188 l 1
500 383.333007812 m 1
 500 466.666992188 l 1
 416.666992188 466.666992188 l 1
 333.333007812 466.666992188 l 1
 333.333007812 383.333007812 l 1
 333.333007812 300 l 1
 416.666992188 300 l 1
 500 300 l 1
 500 383.333007812 l 1
EndSplineSet
PairPos2: "kern-lut" uni000A dx=0 dy=0 dh=-167 dv=0 dx=0 dy=0 dh=0 dv=0
EndChar

StartChar: uni0010
Encoding: 16 16 13
Width: 667
VWidth: 0
Flags: W
LayerCount: 2
Fore
SplineSet
0 383.333007812 m 1
 0 800 l 1
 83.3330078125 800 l 1
 166.666992188 800 l 1
 166.666992188 716.666992188 l 1
 166.666992188 633.333007812 l 1
 250 633.333007812 l 1
 333.333007812 633.333007812 l 1
 333.333007812 550 l 1
 333.333007812 466.666992188 l 1
 416.666992188 466.666992188 l 1
 500 466.666992188 l 1
 500 383.333007812 l 1
 500 300 l 1
 416.666992188 300 l 1
 333.333007812 300 l 1
 333.333007812 216.666992188 l 1
 333.333007812 133.333007812 l 1
 250 133.333007812 l 1
 166.666992188 133.333007812 l 1
 166.666992188 50 l 1
 166.666992188 -33.3330078125 l 1
 83.3330078125 -33.3330078125 l 1
 0 -33.3330078125 l 1
 0 383.333007812 l 1
EndSplineSet
PairPos2: "kern-lut" uni000A dx=0 dy=0 dh=-167 dv=0 dx=0 dy=0 dh=0 dv=0
EndChar

StartChar: uni0011
Encoding: 17 17 14
Width: 667
VWidth: 0
Flags: W
LayerCount: 2
Fore
SplineSet
333.333007812 716.666992188 m 1
 333.333007812 800 l 1
 416.666992188 800 l 1
 500 800 l 1
 500 383.333007812 l 1
 500 -33.3330078125 l 1
 416.666992188 -33.3330078125 l 1
 333.333007812 -33.3330078125 l 1
 333.333007812 50 l 1
 333.333007812 133.333007812 l 1
 250 133.333007812 l 1
 166.666992188 133.333007812 l 1
 166.666992188 216.666992188 l 1
 166.666992188 300 l 1
 83.3330078125 300 l 1
 0 300 l 1
 0 383.333007812 l 1
 0 466.666992188 l 1
 83.3330078125 466.666992188 l 1
 166.666992188 466.666992188 l 1
 166.666992188 550 l 1
 166.666992188 633.333007812 l 1
 250 633.333007812 l 1
 333.333007812 633.333007812 l 1
 333.333007812 716.666992188 l 1
EndSplineSet
PairPos2: "kern-lut" uni000A dx=0 dy=0 dh=-167 dv=0 dx=0 dy=0 dh=0 dv=0
EndChar

StartChar: uni0012
Encoding: 18 18 15
Width: 667
VWidth: 0
Flags: W
LayerCount: 2
Fore
SplineSet
166.666992188 716.666992188 m 1
 166.666992188 800 l 1
 250 800 l 1
 333.333007812 800 l 1
 333.333007812 716.666992188 l 1
 333.333007812 633.333007812 l 1
 416.666992188 633.333007812 l 1
 500 633.333007812 l 1
 500 550 l 1
 500 466.666992188 l 1
 416.666992188 466.666992188 l 1
 333.333007812 466.666992188 l 1
 333.333007812 300 l 1
 333.333007812 133.333007812 l 1
 416.666992188 133.333007812 l 1
 500 133.333007812 l 1
 500 50 l 1
 500 -33.3330078125 l 1
 416.666992188 -33.3330078125 l 1
 333.333007812 -33.3330078125 l 1
 333.333007812 -116.666992188 l 1
 333.333007812 -200 l 1
 250 -200 l 1
 166.666992188 -200 l 1
 166.666992188 -116.666992188 l 1
 166.666992188 -33.3330078125 l 1
 83.3330078125 -33.3330078125 l 1
 0 -33.3330078125 l 1
 0 50 l 1
 0 133.333007812 l 1
 83.3330078125 133.333007812 l 1
 166.666992188 133.333007812 l 1
 166.666992188 300 l 1
 166.666992188 466.666992188 l 1
 83.3330078125 466.666992188 l 1
 0 466.666992188 l 1
 0 550 l 1
 0 633.333007812 l 1
 83.3330078125 633.333007812 l 1
 166.666992188 633.333007812 l 1
 166.666992188 716.666992188 l 1
EndSplineSet
PairPos2: "kern-lut" uni000A dx=0 dy=0 dh=-167 dv=0 dx=0 dy=0 dh=0 dv=0
EndChar

StartChar: uni0013
Encoding: 19 19 16
Width: 667
VWidth: 0
Flags: W
LayerCount: 2
Fore
SplineSet
0 550 m 1
 0 800 l 1
 83.3330078125 800 l 1
 166.666992188 800 l 1
 166.666992188 550 l 1
 166.666992188 300 l 1
 83.3330078125 300 l 1
 0 300 l 1
 0 550 l 1
333.333007812 550 m 1
 333.333007812 800 l 1
 416.666992188 800 l 1
 500 800 l 1
 500 550 l 1
 500 300 l 1
 416.666992188 300 l 1
 333.333007812 300 l 1
 333.333007812 550 l 1
0 50 m 1
 0 133.333007812 l 1
 83.3330078125 133.333007812 l 1
 166.666992188 133.333007812 l 1
 166.666992188 50 l 1
 166.666992188 -33.3330078125 l 1
 83.3330078125 -33.3330078125 l 1
 0 -33.3330078125 l 1
 0 50 l 1
333.333007812 50 m 1
 333.333007812 133.333007812 l 1
 416.666992188 133.333007812 l 1
 500 133.333007812 l 1
 500 50 l 1
 500 -33.3330078125 l 1
 416.666992188 -33.3330078125 l 1
 333.333007812 -33.3330078125 l 1
 333.333007812 50 l 1
EndSplineSet
PairPos2: "kern-lut" uni000A dx=0 dy=0 dh=-167 dv=0 dx=0 dy=0 dh=0 dv=0
EndChar

StartChar: uni0014
Encoding: 20 20 17
Width: 833
VWidth: 0
Flags: W
LayerCount: 2
Fore
SplineSet
0 550 m 1
 0 800 l 1
 333.333007812 800 l 1
 666.666992188 800 l 1
 666.666992188 383.333007812 l 1
 666.666992188 -33.3330078125 l 1
 583.333007812 -33.3330078125 l 1
 500 -33.3330078125 l 1
 500 300 l 1
 500 633.333007812 l 1
 416.666992188 633.333007812 l 1
 333.333007812 633.333007812 l 1
 333.333007812 300 l 1
 333.333007812 -33.3330078125 l 1
 250 -33.3330078125 l 1
 166.666992188 -33.3330078125 l 1
 166.666992188 133.333007812 l 1
 166.666992188 300 l 1
 83.3330078125 300 l 1
 0 300 l 1
 0 550 l 1
EndSplineSet
PairPos2: "kern-lut" uni000A dx=0 dy=0 dh=-167 dv=0 dx=0 dy=0 dh=0 dv=0
EndChar

StartChar: uni0015
Encoding: 21 21 18
Width: 667
VWidth: 0
Flags: W
LayerCount: 2
Fore
SplineSet
166.666992188 633.333007812 m 1
 166.666992188 800 l 1
 333.333007812 800 l 1
 500 800 l 1
 500 716.666992188 l 1
 500 633.333007812 l 1
 416.666992188 633.333007812 l 1
 333.333007812 633.333007812 l 1
 333.333007812 466.666992188 l 1
 333.333007812 300 l 1
 416.666992188 300 l 1
 500 300 l 1
 500 216.666992188 l 1
 500 133.333007812 l 1
 416.666992188 133.333007812 l 1
 333.333007812 133.333007812 l 1
 333.333007812 -33.3330078125 l 1
 333.333007812 -200 l 1
 166.666992188 -200 l 1
 0 -200 l 1
 0 -116.666992188 l 1
 0 -33.3330078125 l 1
 83.3330078125 -33.3330078125 l 1
 166.666992188 -33.3330078125 l 1
 166.666992188 133.333007812 l 1
 166.666992188 300 l 1
 83.3330078125 300 l 1
 0 300 l 1
 0 383.333007812 l 1
 0 466.666992188 l 1
 83.3330078125 466.666992188 l 1
 166.666992188 466.666992188 l 1
 166.666992188 633.333007812 l 1
EndSplineSet
PairPos2: "kern-lut" uni000A dx=0 dy=0 dh=-167 dv=0 dx=0 dy=0 dh=0 dv=0
EndChar

StartChar: uni0016
Encoding: 22 22 19
Width: 1000
VWidth: 0
Flags: W
LayerCount: 2
Fore
SplineSet
0 50 m 1
 0 300 l 1
 416.666992188 300 l 1
 833.333007812 300 l 1
 833.333007812 50 l 1
 833.333007812 -200 l 1
 416.666992188 -200 l 1
 0 -200 l 1
 0 50 l 1
EndSplineSet
PairPos2: "kern-lut" uni000A dx=0 dy=0 dh=-167 dv=0 dx=0 dy=0 dh=0 dv=0
EndChar

StartChar: uni0017
Encoding: 23 23 20
Width: 667
VWidth: 0
Flags: W
LayerCount: 2
Fore
SplineSet
166.666992188 716.666992188 m 1
 166.666992188 800 l 1
 250 800 l 1
 333.333007812 800 l 1
 333.333007812 716.666992188 l 1
 333.333007812 633.333007812 l 1
 416.666992188 633.333007812 l 1
 500 633.333007812 l 1
 500 550 l 1
 500 466.666992188 l 1
 416.666992188 466.666992188 l 1
 333.333007812 466.666992188 l 1
 333.333007812 383.333007812 l 1
 333.333007812 300 l 1
 416.666992188 300 l 1
 500 300 l 1
 500 216.666992188 l 1
 500 133.333007812 l 1
 416.666992188 133.333007812 l 1
 333.333007812 133.333007812 l 1
 333.333007812 50 l 1
 333.333007812 -33.3330078125 l 1
 416.666992188 -33.3330078125 l 1
 500 -33.3330078125 l 1
 500 -116.666992188 l 1
 500 -200 l 1
 250 -200 l 1
 0 -200 l 1
 0 -116.666992188 l 1
 0 -33.3330078125 l 1
 83.3330078125 -33.3330078125 l 1
 166.666992188 -33.3330078125 l 1
 166.666992188 50 l 1
 166.666992188 133.333007812 l 1
 83.3330078125 133.333007812 l 1
 0 133.333007812 l 1
 0 216.666992188 l 1
 0 300 l 1
 83.3330078125 300 l 1
 166.666992188 300 l 1
 166.666992188 383.333007812 l 1
 166.666992188 466.666992188 l 1
 83.3330078125 466.666992188 l 1
 0 466.666992188 l 1
 0 550 l 1
 0 633.333007812 l 1
 83.3330078125 633.333007812 l 1
 166.666992188 633.333007812 l 1
 166.666992188 716.666992188 l 1
EndSplineSet
PairPos2: "kern-lut" uni000A dx=0 dy=0 dh=-167 dv=0 dx=0 dy=0 dh=0 dv=0
EndChar

StartChar: uni0018
Encoding: 24 24 21
Width: 667
VWidth: 0
Flags: W
LayerCount: 2
Fore
SplineSet
166.666992188 716.666992188 m 1
 166.666992188 800 l 1
 250 800 l 1
 333.333007812 800 l 1
 333.333007812 716.666992188 l 1
 333.333007812 633.333007812 l 1
 416.666992188 633.333007812 l 1
 500 633.333007812 l 1
 500 550 l 1
 500 466.666992188 l 1
 416.666992188 466.666992188 l 1
 333.333007812 466.666992188 l 1
 333.333007812 133.333007812 l 1
 333.333007812 -200 l 1
 250 -200 l 1
 166.666992188 -200 l 1
 166.666992188 133.333007812 l 1
 166.666992188 466.666992188 l 1
 83.3330078125 466.666992188 l 1
 0 466.666992188 l 1
 0 550 l 1
 0 633.333007812 l 1
 83.3330078125 633.333007812 l 1
 166.666992188 633.333007812 l 1
 166.666992188 716.666992188 l 1
EndSplineSet
PairPos2: "kern-lut" uni000A dx=0 dy=0 dh=-167 dv=0 dx=0 dy=0 dh=0 dv=0
EndChar

StartChar: uni0019
Encoding: 25 25 22
Width: 667
VWidth: 0
Flags: W
LayerCount: 2
Fore
SplineSet
166.666992188 466.666992188 m 1
 166.666992188 800 l 1
 250 800 l 1
 333.333007812 800 l 1
 333.333007812 466.666992188 l 1
 333.333007812 133.333007812 l 1
 416.666992188 133.333007812 l 1
 500 133.333007812 l 1
 500 50 l 1
 500 -33.3330078125 l 1
 416.666992188 -33.3330078125 l 1
 333.333007812 -33.3330078125 l 1
 333.333007812 -116.666992188 l 1
 333.333007812 -200 l 1
 250 -200 l 1
 166.666992188 -200 l 1
 166.666992188 -116.666992188 l 1
 166.666992188 -33.3330078125 l 1
 83.3330078125 -33.3330078125 l 1
 0 -33.3330078125 l 1
 0 50 l 1
 0 133.333007812 l 1
 83.3330078125 133.333007812 l 1
 166.666992188 133.333007812 l 1
 166.666992188 466.666992188 l 1
EndSplineSet
PairPos2: "kern-lut" uni000A dx=0 dy=0 dh=-167 dv=0 dx=0 dy=0 dh=0 dv=0
EndChar

StartChar: uni001A
Encoding: 26 26 23
Width: 1000
VWidth: 0
Flags: W
LayerCount: 2
Fore
SplineSet
500 550 m 1
 500 633.333007812 l 1
 583.333007812 633.333007812 l 1
 666.666992188 633.333007812 l 1
 666.666992188 550 l 1
 666.666992188 466.666992188 l 1
 750 466.666992188 l 1
 833.333007812 466.666992188 l 1
 833.333007812 383.333007812 l 1
 833.333007812 300 l 1
 750 300 l 1
 666.666992188 300 l 1
 666.666992188 216.666992188 l 1
 666.666992188 133.333007812 l 1
 583.333007812 133.333007812 l 1
 500 133.333007812 l 1
 500 216.666992188 l 1
 500 300 l 1
 250 300 l 1
 0 300 l 1
 0 383.333007812 l 1
 0 466.666992188 l 1
 250 466.666992188 l 1
 500 466.666992188 l 1
 500 550 l 1
EndSplineSet
PairPos2: "kern-lut" uni000A dx=0 dy=0 dh=-167 dv=0 dx=0 dy=0 dh=0 dv=0
EndChar

StartChar: uni001B
Encoding: 27 27 24
Width: 1000
VWidth: 0
Flags: W
LayerCount: 2
Fore
SplineSet
166.666992188 550 m 1
 166.666992188 633.333007812 l 1
 250 633.333007812 l 1
 333.333007812 633.333007812 l 1
 333.333007812 550 l 1
 333.333007812 466.666992188 l 1
 583.333007812 466.666992188 l 1
 833.333007812 466.666992188 l 1
 833.333007812 383.333007812 l 1
 833.333007812 300 l 1
 583.333007812 300 l 1
 333.333007812 300 l 1
 333.333007812 216.666992188 l 1
 333.333007812 133.333007812 l 1
 250 133.333007812 l 1
 166.666992188 133.333007812 l 1
 166.666992188 216.666992188 l 1
 166.666992188 300 l 1
 83.3330078125 300 l 1
 0 300 l 1
 0 383.333007812 l 1
 0 466.666992188 l 1
 83.3330078125 466.666992188 l 1
 166.666992188 466.666992188 l 1
 166.666992188 550 l 1
EndSplineSet
PairPos2: "kern-lut" uni000A dx=0 dy=0 dh=-167 dv=0 dx=0 dy=0 dh=0 dv=0
EndChar

StartChar: uni001D
Encoding: 29 29 25
Width: 1000
VWidth: 0
Flags: W
LayerCount: 2
Fore
SplineSet
166.666992188 550 m 1
 166.666992188 633.333007812 l 1
 250 633.333007812 l 1
 333.333007812 633.333007812 l 1
 333.333007812 550 l 1
 333.333007812 466.666992188 l 1
 416.666992188 466.666992188 l 1
 500 466.666992188 l 1
 500 550 l 1
 500 633.333007812 l 1
 583.333007812 633.333007812 l 1
 666.666992188 633.333007812 l 1
 666.666992188 550 l 1
 666.666992188 466.666992188 l 1
 750 466.666992188 l 1
 833.333007812 466.666992188 l 1
 833.333007812 383.333007812 l 1
 833.333007812 300 l 1
 750 300 l 1
 666.666992188 300 l 1
 666.666992188 216.666992188 l 1
 666.666992188 133.333007812 l 1
 583.333007812 133.333007812 l 1
 500 133.333007812 l 1
 500 216.666992188 l 1
 500 300 l 1
 416.666992188 300 l 1
 333.333007812 300 l 1
 333.333007812 216.666992188 l 1
 333.333007812 133.333007812 l 1
 250 133.333007812 l 1
 166.666992188 133.333007812 l 1
 166.666992188 216.666992188 l 1
 166.666992188 300 l 1
 83.3330078125 300 l 1
 0 300 l 1
 0 383.333007812 l 1
 0 466.666992188 l 1
 83.3330078125 466.666992188 l 1
 166.666992188 466.666992188 l 1
 166.666992188 550 l 1
EndSplineSet
PairPos2: "kern-lut" uni000A dx=0 dy=0 dh=-167 dv=0 dx=0 dy=0 dh=0 dv=0
EndChar

StartChar: uni001E
Encoding: 30 30 26
Width: 1000
VWidth: 0
Flags: W
LayerCount: 2
Fore
SplineSet
333.333007812 550 m 1
 333.333007812 633.333007812 l 1
 416.666992188 633.333007812 l 1
 500 633.333007812 l 1
 500 550 l 1
 500 466.666992188 l 1
 583.333007812 466.666992188 l 1
 666.666992188 466.666992188 l 1
 666.666992188 383.333007812 l 1
 666.666992188 300 l 1
 750 300 l 1
 833.333007812 300 l 1
 833.333007812 216.666992188 l 1
 833.333007812 133.333007812 l 1
 416.666992188 133.333007812 l 1
 0 133.333007812 l 1
 0 216.666992188 l 1
 0 300 l 1
 83.3330078125 300 l 1
 166.666992188 300 l 1
 166.666992188 383.333007812 l 1
 166.666992188 466.666992188 l 1
 250 466.666992188 l 1
 333.333007812 466.666992188 l 1
 333.333007812 550 l 1
EndSplineSet
PairPos2: "kern-lut" uni000A dx=0 dy=0 dh=-167 dv=0 dx=0 dy=0 dh=0 dv=0
EndChar

StartChar: uni001F
Encoding: 31 31 27
Width: 1000
VWidth: 0
Flags: W
LayerCount: 2
Fore
SplineSet
0 550 m 1
 0 633.333007812 l 1
 416.666992188 633.333007812 l 1
 833.333007812 633.333007812 l 1
 833.333007812 550 l 1
 833.333007812 466.666992188 l 1
 750 466.666992188 l 1
 666.666992188 466.666992188 l 1
 666.666992188 383.333007812 l 1
 666.666992188 300 l 1
 583.333007812 300 l 1
 500 300 l 1
 500 216.666992188 l 1
 500 133.333007812 l 1
 416.666992188 133.333007812 l 1
 333.333007812 133.333007812 l 1
 333.333007812 216.666992188 l 1
 333.333007812 300 l 1
 250 300 l 1
 166.666992188 300 l 1
 166.666992188 383.333007812 l 1
 166.666992188 466.666992188 l 1
 83.3330078125 466.666992188 l 1
 0 466.666992188 l 1
 0 550 l 1
EndSplineSet
PairPos2: "kern-lut" uni000A dx=0 dy=0 dh=-167 dv=0 dx=0 dy=0 dh=0 dv=0
EndChar

StartChar: exclam
Encoding: 33 33 28
Width: 333
VWidth: 0
Flags: W
LayerCount: 2
Fore
SplineSet
0 550 m 1
 0 800 l 1
 83.3330078125 800 l 1
 166.666992188 800 l 1
 166.666992188 550 l 1
 166.666992188 300 l 1
 83.3330078125 300 l 1
 0 300 l 1
 0 550 l 1
0 50 m 1
 0 133.333007812 l 1
 83.3330078125 133.333007812 l 1
 166.666992188 133.333007812 l 1
 166.666992188 50 l 1
 166.666992188 -33.3330078125 l 1
 83.3330078125 -33.3330078125 l 1
 0 -33.3330078125 l 1
 0 50 l 1
EndSplineSet
PairPos2: "kern-lut" uni000A dx=0 dy=0 dh=-167 dv=0 dx=0 dy=0 dh=0 dv=0
EndChar

StartChar: quotedbl
Encoding: 34 34 29
Width: 667
VWidth: 0
Flags: W
LayerCount: 2
Fore
SplineSet
0 633.333007812 m 1
 0 800 l 1
 83.3330078125 800 l 1
 166.666992188 800 l 1
 166.666992188 633.333007812 l 1
 166.666992188 466.666992188 l 1
 83.3330078125 466.666992188 l 1
 0 466.666992188 l 1
 0 633.333007812 l 1
333.333007812 633.333007812 m 1
 333.333007812 800 l 1
 416.666992188 800 l 1
 500 800 l 1
 500 633.333007812 l 1
 500 466.666992188 l 1
 416.666992188 466.666992188 l 1
 333.333007812 466.666992188 l 1
 333.333007812 633.333007812 l 1
EndSplineSet
PairPos2: "kern-lut" uni000A dx=0 dy=0 dh=-167 dv=0 dx=0 dy=0 dh=0 dv=0
EndChar

StartChar: numbersign
Encoding: 35 35 30
Width: 1000
VWidth: 0
Flags: W
LayerCount: 2
Fore
SplineSet
166.666992188 716.666992188 m 1
 166.666992188 800 l 1
 250 800 l 1
 333.333007812 800 l 1
 333.333007812 716.666992188 l 1
 333.333007812 633.333007812 l 1
 416.666992188 633.333007812 l 1
 500 633.333007812 l 1
 500 716.666992188 l 1
 500 800 l 1
 583.333007812 800 l 1
 666.666992188 800 l 1
 666.666992188 716.666992188 l 1
 666.666992188 633.333007812 l 1
 750 633.333007812 l 1
 833.333007812 633.333007812 l 1
 833.333007812 550 l 1
 833.333007812 466.666992188 l 1
 750 466.666992188 l 1
 666.666992188 466.666992188 l 1
 666.666992188 383.333007812 l 1
 666.666992188 300 l 1
 750 300 l 1
 833.333007812 300 l 1
 833.333007812 216.666992188 l 1
 833.333007812 133.333007812 l 1
 750 133.333007812 l 1
 666.666992188 133.333007812 l 1
 666.666992188 50 l 1
 666.666992188 -33.3330078125 l 1
 583.333007812 -33.3330078125 l 1
 500 -33.3330078125 l 1
 500 50 l 1
 500 133.333007812 l 1
 416.666992188 133.333007812 l 1
 333.333007812 133.333007812 l 1
 333.333007812 50 l 1
 333.333007812 -33.3330078125 l 1
 250 -33.3330078125 l 1
 166.666992188 -33.3330078125 l 1
 166.666992188 50 l 1
 166.666992188 133.333007812 l 1
 83.3330078125 133.333007812 l 1
 0 133.333007812 l 1
 0 216.666992188 l 1
 0 300 l 1
 83.3330078125 300 l 1
 166.666992188 300 l 1
 166.666992188 383.333007812 l 1
 166.666992188 466.666992188 l 1
 83.3330078125 466.666992188 l 1
 0 466.666992188 l 1
 0 550 l 1
 0 633.333007812 l 1
 83.3330078125 633.333007812 l 1
 166.666992188 633.333007812 l 1
 166.666992188 716.666992188 l 1
500 383.333007812 m 1
 500 466.666992188 l 1
 416.666992188 466.666992188 l 1
 333.333007812 466.666992188 l 1
 333.333007812 383.333007812 l 1
 333.333007812 300 l 1
 416.666992188 300 l 1
 500 300 l 1
 500 383.333007812 l 1
EndSplineSet
PairPos2: "kern-lut" uni000A dx=0 dy=0 dh=-167 dv=0 dx=0 dy=0 dh=0 dv=0
EndChar

StartChar: dollar
Encoding: 36 36 31
Width: 667
VWidth: 0
Flags: W
LayerCount: 2
Fore
SplineSet
166.666992188 716.666992188 m 1
 166.666992188 800 l 1
 250 800 l 1
 333.333007812 800 l 1
 333.333007812 716.666992188 l 1
 333.333007812 633.333007812 l 1
 416.666992188 633.333007812 l 1
 500 633.333007812 l 1
 500 550 l 1
 500 466.666992188 l 1
 416.666992188 466.666992188 l 1
 333.333007812 466.666992188 l 1
 333.333007812 383.333007812 l 1
 333.333007812 300 l 1
 416.666992188 300 l 1
 500 300 l 1
 500 133.333007812 l 1
 500 -33.3330078125 l 1
 416.666992188 -33.3330078125 l 1
 333.333007812 -33.3330078125 l 1
 333.333007812 -116.666992188 l 1
 333.333007812 -200 l 1
 250 -200 l 1
 166.666992188 -200 l 1
 166.666992188 -116.666992188 l 1
 166.666992188 -33.3330078125 l 1
 83.3330078125 -33.3330078125 l 1
 0 -33.3330078125 l 1
 0 50 l 1
 0 133.333007812 l 1
 83.3330078125 133.333007812 l 1
 166.666992188 133.333007812 l 1
 166.666992188 216.666992188 l 1
 166.666992188 300 l 1
 83.3330078125 300 l 1
 0 300 l 1
 0 466.666992188 l 1
 0 633.333007812 l 1
 83.3330078125 633.333007812 l 1
 166.666992188 633.333007812 l 1
 166.666992188 716.666992188 l 1
EndSplineSet
PairPos2: "kern-lut" uni000A dx=0 dy=0 dh=-167 dv=0 dx=0 dy=0 dh=0 dv=0
EndChar

StartChar: percent
Encoding: 37 37 32
Width: 1000
VWidth: 0
Flags: W
LayerCount: 2
Fore
SplineSet
0 633.333007812 m 1
 0 800 l 1
 166.666992188 800 l 1
 333.333007812 800 l 1
 333.333007812 716.666992188 l 1
 333.333007812 633.333007812 l 1
 250 633.333007812 l 1
 166.666992188 633.333007812 l 1
 166.666992188 550 l 1
 166.666992188 466.666992188 l 1
 83.3330078125 466.666992188 l 1
 0 466.666992188 l 1
 0 633.333007812 l 1
666.666992188 716.666992188 m 1
 666.666992188 800 l 1
 750 800 l 1
 833.333007812 800 l 1
 833.333007812 716.666992188 l 1
 833.333007812 633.333007812 l 1
 750 633.333007812 l 1
 666.666992188 633.333007812 l 1
 666.666992188 550 l 1
 666.666992188 466.666992188 l 1
 583.333007812 466.666992188 l 1
 500 466.666992188 l 1
 500 383.333007812 l 1
 500 300 l 1
 416.666992188 300 l 1
 333.333007812 300 l 1
 333.333007812 216.666992188 l 1
 333.333007812 133.333007812 l 1
 250 133.333007812 l 1
 166.666992188 133.333007812 l 1
 166.666992188 50 l 1
 166.666992188 -33.3330078125 l 1
 83.3330078125 -33.3330078125 l 1
 0 -33.3330078125 l 1
 0 50 l 1
 0 133.333007812 l 1
 83.3330078125 133.333007812 l 1
 166.666992188 133.333007812 l 1
 166.666992188 216.666992188 l 1
 166.666992188 300 l 1
 250 300 l 1
 333.333007812 300 l 1
 333.333007812 383.333007812 l 1
 333.333007812 466.666992188 l 1
 416.666992188 466.666992188 l 1
 500 466.666992188 l 1
 500 550 l 1
 500 633.333007812 l 1
 583.333007812 633.333007812 l 1
 666.666992188 633.333007812 l 1
 666.666992188 716.666992188 l 1
666.666992188 216.666992188 m 1
 666.666992188 300 l 1
 750 300 l 1
 833.333007812 300 l 1
 833.333007812 133.333007812 l 1
 833.333007812 -33.3330078125 l 1
 666.666992188 -33.3330078125 l 1
 500 -33.3330078125 l 1
 500 50 l 1
 500 133.333007812 l 1
 583.333007812 133.333007812 l 1
 666.666992188 133.333007812 l 1
 666.666992188 216.666992188 l 1
EndSplineSet
PairPos2: "kern-lut" uni000A dx=0 dy=0 dh=-167 dv=0 dx=0 dy=0 dh=0 dv=0
EndChar

StartChar: ampersand
Encoding: 38 38 33
Width: 833
VWidth: 0
Flags: W
LayerCount: 2
Fore
SplineSet
166.666992188 633.333007812 m 1
 166.666992188 800 l 1
 416.666992188 800 l 1
 666.666992188 800 l 1
 666.666992188 550 l 1
 666.666992188 300 l 1
 583.333007812 300 l 1
 500 300 l 1
 500 216.666992188 l 1
 500 133.333007812 l 1
 583.333007812 133.333007812 l 1
 666.666992188 133.333007812 l 1
 666.666992188 50 l 1
 666.666992188 -33.3330078125 l 1
 333.333007812 -33.3330078125 l 1
 0 -33.3330078125 l 1
 0 216.666992188 l 1
 0 466.666992188 l 1
 83.3330078125 466.666992188 l 1
 166.666992188 466.666992188 l 1
 166.666992188 633.333007812 l 1
500 550 m 1
 500 633.333007812 l 1
 416.666992188 633.333007812 l 1
 333.333007812 633.333007812 l 1
 333.333007812 550 l 1
 333.333007812 466.666992188 l 1
 416.666992188 466.666992188 l 1
 500 466.666992188 l 1
 500 550 l 1
333.333007812 216.666992188 m 1
 333.333007812 300 l 1
 250 300 l 1
 166.666992188 300 l 1
 166.666992188 216.666992188 l 1
 166.666992188 133.333007812 l 1
 250 133.333007812 l 1
 333.333007812 133.333007812 l 1
 333.333007812 216.666992188 l 1
EndSplineSet
PairPos2: "kern-lut" uni000A dx=0 dy=0 dh=-167 dv=0 dx=0 dy=0 dh=0 dv=0
EndChar

StartChar: quotesingle
Encoding: 39 39 34
Width: 333
VWidth: 0
Flags: W
LayerCount: 2
Fore
SplineSet
0 633.333007812 m 1
 0 800 l 1
 83.3330078125 800 l 1
 166.666992188 800 l 1
 166.666992188 633.333007812 l 1
 166.666992188 466.666992188 l 1
 83.3330078125 466.666992188 l 1
 0 466.666992188 l 1
 0 633.333007812 l 1
EndSplineSet
PairPos2: "kern-lut" d dx=0 dy=0 dh=-167 dv=0 dx=0 dy=0 dh=0 dv=0
PairPos2: "kern-lut" s dx=0 dy=0 dh=-167 dv=0 dx=0 dy=0 dh=0 dv=0
PairPos2: "kern-lut" uni000A dx=0 dy=0 dh=-167 dv=0 dx=0 dy=0 dh=0 dv=0
EndChar

StartChar: parenleft
Encoding: 40 40 35
Width: 500
VWidth: 0
Flags: W
LayerCount: 2
Fore
SplineSet
166.666992188 716.666992188 m 1
 166.666992188 800 l 1
 250 800 l 1
 333.333007812 800 l 1
 333.333007812 716.666992188 l 1
 333.333007812 633.333007812 l 1
 250 633.333007812 l 1
 166.666992188 633.333007812 l 1
 166.666992188 383.333007812 l 1
 166.666992188 133.333007812 l 1
 250 133.333007812 l 1
 333.333007812 133.333007812 l 1
 333.333007812 50 l 1
 333.333007812 -33.3330078125 l 1
 250 -33.3330078125 l 1
 166.666992188 -33.3330078125 l 1
 166.666992188 50 l 1
 166.666992188 133.333007812 l 1
 83.3330078125 133.333007812 l 1
 0 133.333007812 l 1
 0 383.333007812 l 1
 0 633.333007812 l 1
 83.3330078125 633.333007812 l 1
 166.666992188 633.333007812 l 1
 166.666992188 716.666992188 l 1
EndSplineSet
PairPos2: "kern-lut" uni000A dx=0 dy=0 dh=-167 dv=0 dx=0 dy=0 dh=0 dv=0
EndChar

StartChar: parenright
Encoding: 41 41 36
Width: 500
VWidth: 0
Flags: W
LayerCount: 2
Fore
SplineSet
0 716.666992188 m 1
 0 800 l 1
 83.3330078125 800 l 1
 166.666992188 800 l 1
 166.666992188 716.666992188 l 1
 166.666992188 633.333007812 l 1
 250 633.333007812 l 1
 333.333007812 633.333007812 l 1
 333.333007812 383.333007812 l 1
 333.333007812 133.333007812 l 1
 250 133.333007812 l 1
 166.666992188 133.333007812 l 1
 166.666992188 50 l 1
 166.666992188 -33.3330078125 l 1
 83.3330078125 -33.3330078125 l 1
 0 -33.3330078125 l 1
 0 50 l 1
 0 133.333007812 l 1
 83.3330078125 133.333007812 l 1
 166.666992188 133.333007812 l 1
 166.666992188 383.333007812 l 1
 166.666992188 633.333007812 l 1
 83.3330078125 633.333007812 l 1
 0 633.333007812 l 1
 0 716.666992188 l 1
EndSplineSet
PairPos2: "kern-lut" uni000A dx=0 dy=0 dh=-167 dv=0 dx=0 dy=0 dh=0 dv=0
EndChar

StartChar: asterisk
Encoding: 42 42 37
Width: 667
VWidth: 0
Flags: W
LayerCount: 2
Fore
SplineSet
0 716.666992188 m 1
 0 800 l 1
 83.3330078125 800 l 1
 166.666992188 800 l 1
 166.666992188 716.666992188 l 1
 166.666992188 633.333007812 l 1
 250 633.333007812 l 1
 333.333007812 633.333007812 l 1
 333.333007812 716.666992188 l 1
 333.333007812 800 l 1
 416.666992188 800 l 1
 500 800 l 1
 500 716.666992188 l 1
 500 633.333007812 l 1
 416.666992188 633.333007812 l 1
 333.333007812 633.333007812 l 1
 333.333007812 550 l 1
 333.333007812 466.666992188 l 1
 416.666992188 466.666992188 l 1
 500 466.666992188 l 1
 500 383.333007812 l 1
 500 300 l 1
 416.666992188 300 l 1
 333.333007812 300 l 1
 333.333007812 383.333007812 l 1
 333.333007812 466.666992188 l 1
 250 466.666992188 l 1
 166.666992188 466.666992188 l 1
 166.666992188 383.333007812 l 1
 166.666992188 300 l 1
 83.3330078125 300 l 1
 0 300 l 1
 0 383.333007812 l 1
 0 466.666992188 l 1
 83.3330078125 466.666992188 l 1
 166.666992188 466.666992188 l 1
 166.666992188 550 l 1
 166.666992188 633.333007812 l 1
 83.3330078125 633.333007812 l 1
 0 633.333007812 l 1
 0 716.666992188 l 1
EndSplineSet
PairPos2: "kern-lut" uni000A dx=0 dy=0 dh=-167 dv=0 dx=0 dy=0 dh=0 dv=0
EndChar

StartChar: plus
Encoding: 43 43 38
Width: 667
VWidth: 0
Flags: W
LayerCount: 2
Fore
SplineSet
166.666992188 550 m 1
 166.666992188 633.333007812 l 1
 250 633.333007812 l 1
 333.333007812 633.333007812 l 1
 333.333007812 550 l 1
 333.333007812 466.666992188 l 1
 416.666992188 466.666992188 l 1
 500 466.666992188 l 1
 500 383.333007812 l 1
 500 300 l 1
 416.666992188 300 l 1
 333.333007812 300 l 1
 333.333007812 216.666992188 l 1
 333.333007812 133.333007812 l 1
 250 133.333007812 l 1
 166.666992188 133.333007812 l 1
 166.666992188 216.666992188 l 1
 166.666992188 300 l 1
 83.3330078125 300 l 1
 0 300 l 1
 0 383.333007812 l 1
 0 466.666992188 l 1
 83.3330078125 466.666992188 l 1
 166.666992188 466.666992188 l 1
 166.666992188 550 l 1
EndSplineSet
PairPos2: "kern-lut" uni000A dx=0 dy=0 dh=-167 dv=0 dx=0 dy=0 dh=0 dv=0
EndChar

StartChar: comma
Encoding: 44 44 39
Width: 500
VWidth: 0
Flags: W
LayerCount: 2
Fore
SplineSet
166.666992188 50 m 1
 166.666992188 133.333007812 l 1
 250 133.333007812 l 1
 333.333007812 133.333007812 l 1
 333.333007812 50 l 1
 333.333007812 -33.3330078125 l 1
 250 -33.3330078125 l 1
 166.666992188 -33.3330078125 l 1
 166.666992188 -116.666992188 l 1
 166.666992188 -200 l 1
 83.3330078125 -200 l 1
 0 -200 l 1
 0 -116.666992188 l 1
 0 -33.3330078125 l 1
 83.3330078125 -33.3330078125 l 1
 166.666992188 -33.3330078125 l 1
 166.666992188 50 l 1
EndSplineSet
PairPos2: "kern-lut" grave dx=0 dy=0 dh=-167 dv=0 dx=0 dy=0 dh=0 dv=0
PairPos2: "kern-lut" uni000A dx=0 dy=0 dh=-167 dv=0 dx=0 dy=0 dh=0 dv=0
EndChar

StartChar: hyphen
Encoding: 45 45 40
Width: 667
VWidth: 0
Flags: W
LayerCount: 2
Fore
SplineSet
0 383.333007812 m 1
 0 466.666992188 l 1
 250 466.666992188 l 1
 500 466.666992188 l 1
 500 383.333007812 l 1
 500 300 l 1
 250 300 l 1
 0 300 l 1
 0 383.333007812 l 1
EndSplineSet
PairPos2: "kern-lut" grave dx=0 dy=0 dh=-167 dv=0 dx=0 dy=0 dh=0 dv=0
PairPos2: "kern-lut" uni000A dx=0 dy=0 dh=-167 dv=0 dx=0 dy=0 dh=0 dv=0
EndChar

StartChar: period
Encoding: 46 46 41
Width: 333
VWidth: 0
Flags: W
LayerCount: 2
Fore
SplineSet
0 50 m 1
 0 133.333007812 l 1
 83.3330078125 133.333007812 l 1
 166.666992188 133.333007812 l 1
 166.666992188 50 l 1
 166.666992188 -33.3330078125 l 1
 83.3330078125 -33.3330078125 l 1
 0 -33.3330078125 l 1
 0 50 l 1
EndSplineSet
PairPos2: "kern-lut" grave dx=0 dy=0 dh=-167 dv=0 dx=0 dy=0 dh=0 dv=0
PairPos2: "kern-lut" uni000A dx=0 dy=0 dh=-167 dv=0 dx=0 dy=0 dh=0 dv=0
EndChar

StartChar: slash
Encoding: 47 47 42
Width: 667
VWidth: 0
Flags: W
LayerCount: 2
Fore
SplineSet
333.333007812 633.333007812 m 1
 333.333007812 800 l 1
 416.666992188 800 l 1
 500 800 l 1
 500 633.333007812 l 1
 500 466.666992188 l 1
 416.666992188 466.666992188 l 1
 333.333007812 466.666992188 l 1
 333.333007812 300 l 1
 333.333007812 133.333007812 l 1
 250 133.333007812 l 1
 166.666992188 133.333007812 l 1
 166.666992188 -33.3330078125 l 1
 166.666992188 -200 l 1
 83.3330078125 -200 l 1
 0 -200 l 1
 0 -33.3330078125 l 1
 0 133.333007812 l 1
 83.3330078125 133.333007812 l 1
 166.666992188 133.333007812 l 1
 166.666992188 300 l 1
 166.666992188 466.666992188 l 1
 250 466.666992188 l 1
 333.333007812 466.666992188 l 1
 333.333007812 633.333007812 l 1
EndSplineSet
PairPos2: "kern-lut" uni000A dx=0 dy=0 dh=-167 dv=0 dx=0 dy=0 dh=0 dv=0
EndChar

StartChar: zero
Encoding: 48 48 43
Width: 667
VWidth: 0
Flags: W
LayerCount: 2
Fore
SplineSet
166.666992188 716.666992188 m 1
 166.666992188 800 l 1
 333.333007812 800 l 1
 500 800 l 1
 500 466.666992188 l 1
 500 133.333007812 l 1
 416.666992188 133.333007812 l 1
 333.333007812 133.333007812 l 1
 333.333007812 50 l 1
 333.333007812 -33.3330078125 l 1
 166.666992188 -33.3330078125 l 1
 0 -33.3330078125 l 1
 0 300 l 1
 0 633.333007812 l 1
 83.3330078125 633.333007812 l 1
 166.666992188 633.333007812 l 1
 166.666992188 716.666992188 l 1
333.333007812 383.333007812 m 1
 333.333007812 633.333007812 l 1
 250 633.333007812 l 1
 166.666992188 633.333007812 l 1
 166.666992188 383.333007812 l 1
 166.666992188 133.333007812 l 1
 250 133.333007812 l 1
 333.333007812 133.333007812 l 1
 333.333007812 383.333007812 l 1
EndSplineSet
PairPos2: "kern-lut" uni000A dx=0 dy=0 dh=-167 dv=0 dx=0 dy=0 dh=0 dv=0
EndChar

StartChar: one
Encoding: 49 49 44
Width: 667
VWidth: 0
Flags: W
LayerCount: 2
Fore
SplineSet
0 716.666992188 m 1
 0 800 l 1
 166.666992188 800 l 1
 333.333007812 800 l 1
 333.333007812 466.666992188 l 1
 333.333007812 133.333007812 l 1
 416.666992188 133.333007812 l 1
 500 133.333007812 l 1
 500 50 l 1
 500 -33.3330078125 l 1
 250 -33.3330078125 l 1
 0 -33.3330078125 l 1
 0 50 l 1
 0 133.333007812 l 1
 83.3330078125 133.333007812 l 1
 166.666992188 133.333007812 l 1
 166.666992188 383.333007812 l 1
 166.666992188 633.333007812 l 1
 83.3330078125 633.333007812 l 1
 0 633.333007812 l 1
 0 716.666992188 l 1
EndSplineSet
PairPos2: "kern-lut" uni000A dx=0 dy=0 dh=-167 dv=0 dx=0 dy=0 dh=0 dv=0
EndChar

StartChar: two
Encoding: 50 50 45
Width: 667
VWidth: 0
Flags: W
LayerCount: 2
Fore
SplineSet
0 716.666992188 m 1
 0 800 l 1
 250 800 l 1
 500 800 l 1
 500 550 l 1
 500 300 l 1
 333.333007812 300 l 1
 166.666992188 300 l 1
 166.666992188 216.666992188 l 1
 166.666992188 133.333007812 l 1
 333.333007812 133.333007812 l 1
 500 133.333007812 l 1
 500 50 l 1
 500 -33.3330078125 l 1
 250 -33.3330078125 l 1
 0 -33.3330078125 l 1
 0 216.666992188 l 1
 0 466.666992188 l 1
 166.666992188 466.666992188 l 1
 333.333007812 466.666992188 l 1
 333.333007812 550 l 1
 333.333007812 633.333007812 l 1
 166.666992188 633.333007812 l 1
 0 633.333007812 l 1
 0 716.666992188 l 1
EndSplineSet
PairPos2: "kern-lut" uni000A dx=0 dy=0 dh=-167 dv=0 dx=0 dy=0 dh=0 dv=0
EndChar

StartChar: three
Encoding: 51 51 46
Width: 667
VWidth: 0
Flags: W
LayerCount: 2
Fore
SplineSet
0 716.666992188 m 1
 0 800 l 1
 250 800 l 1
 500 800 l 1
 500 383.333007812 l 1
 500 -33.3330078125 l 1
 250 -33.3330078125 l 1
 0 -33.3330078125 l 1
 0 50 l 1
 0 133.333007812 l 1
 166.666992188 133.333007812 l 1
 333.333007812 133.333007812 l 1
 333.333007812 216.666992188 l 1
 333.333007812 300 l 1
 250 300 l 1
 166.666992188 300 l 1
 166.666992188 383.333007812 l 1
 166.666992188 466.666992188 l 1
 250 466.666992188 l 1
 333.333007812 466.666992188 l 1
 333.333007812 550 l 1
 333.333007812 633.333007812 l 1
 166.666992188 633.333007812 l 1
 0 633.333007812 l 1
 0 716.666992188 l 1
EndSplineSet
PairPos2: "kern-lut" uni000A dx=0 dy=0 dh=-167 dv=0 dx=0 dy=0 dh=0 dv=0
EndChar

StartChar: four
Encoding: 52 52 47
Width: 667
VWidth: 0
Flags: W
LayerCount: 2
Fore
SplineSet
0 550 m 1
 0 800 l 1
 83.3330078125 800 l 1
 166.666992188 800 l 1
 166.666992188 633.333007812 l 1
 166.666992188 466.666992188 l 1
 250 466.666992188 l 1
 333.333007812 466.666992188 l 1
 333.333007812 633.333007812 l 1
 333.333007812 800 l 1
 416.666992188 800 l 1
 500 800 l 1
 500 383.333007812 l 1
 500 -33.3330078125 l 1
 416.666992188 -33.3330078125 l 1
 333.333007812 -33.3330078125 l 1
 333.333007812 133.333007812 l 1
 333.333007812 300 l 1
 166.666992188 300 l 1
 0 300 l 1
 0 550 l 1
EndSplineSet
PairPos2: "kern-lut" uni000A dx=0 dy=0 dh=-167 dv=0 dx=0 dy=0 dh=0 dv=0
EndChar

StartChar: five
Encoding: 53 53 48
Width: 667
VWidth: 0
Flags: W
LayerCount: 2
Fore
SplineSet
0 550 m 1
 0 800 l 1
 250 800 l 1
 500 800 l 1
 500 716.666992188 l 1
 500 633.333007812 l 1
 333.333007812 633.333007812 l 1
 166.666992188 633.333007812 l 1
 166.666992188 550 l 1
 166.666992188 466.666992188 l 1
 333.333007812 466.666992188 l 1
 500 466.666992188 l 1
 500 216.666992188 l 1
 500 -33.3330078125 l 1
 250 -33.3330078125 l 1
 0 -33.3330078125 l 1
 0 50 l 1
 0 133.333007812 l 1
 166.666992188 133.333007812 l 1
 333.333007812 133.333007812 l 1
 333.333007812 216.666992188 l 1
 333.333007812 300 l 1
 166.666992188 300 l 1
 0 300 l 1
 0 550 l 1
EndSplineSet
PairPos2: "kern-lut" uni000A dx=0 dy=0 dh=-167 dv=0 dx=0 dy=0 dh=0 dv=0
EndChar

StartChar: six
Encoding: 54 54 49
Width: 667
VWidth: 0
Flags: W
LayerCount: 2
Fore
SplineSet
0 383.333007812 m 1
 0 800 l 1
 250 800 l 1
 500 800 l 1
 500 716.666992188 l 1
 500 633.333007812 l 1
 333.333007812 633.333007812 l 1
 166.666992188 633.333007812 l 1
 166.666992188 550 l 1
 166.666992188 466.666992188 l 1
 333.333007812 466.666992188 l 1
 500 466.666992188 l 1
 500 216.666992188 l 1
 500 -33.3330078125 l 1
 250 -33.3330078125 l 1
 0 -33.3330078125 l 1
 0 383.333007812 l 1
333.333007812 216.666992188 m 1
 333.333007812 300 l 1
 250 300 l 1
 166.666992188 300 l 1
 166.666992188 216.666992188 l 1
 166.666992188 133.333007812 l 1
 250 133.333007812 l 1
 333.333007812 133.333007812 l 1
 333.333007812 216.666992188 l 1
EndSplineSet
PairPos2: "kern-lut" uni000A dx=0 dy=0 dh=-167 dv=0 dx=0 dy=0 dh=0 dv=0
EndChar

StartChar: seven
Encoding: 55 55 50
Width: 667
VWidth: 0
Flags: W
LayerCount: 2
Fore
SplineSet
0 633.333007812 m 1
 0 800 l 1
 250 800 l 1
 500 800 l 1
 500 383.333007812 l 1
 500 -33.3330078125 l 1
 416.666992188 -33.3330078125 l 1
 333.333007812 -33.3330078125 l 1
 333.333007812 300 l 1
 333.333007812 633.333007812 l 1
 250 633.333007812 l 1
 166.666992188 633.333007812 l 1
 166.666992188 550 l 1
 166.666992188 466.666992188 l 1
 83.3330078125 466.666992188 l 1
 0 466.666992188 l 1
 0 633.333007812 l 1
EndSplineSet
PairPos2: "kern-lut" uni000A dx=0 dy=0 dh=-167 dv=0 dx=0 dy=0 dh=0 dv=0
EndChar

StartChar: eight
Encoding: 56 56 51
Width: 667
VWidth: 0
Flags: W
LayerCount: 2
Fore
SplineSet
0 383.333007812 m 1
 0 800 l 1
 250 800 l 1
 500 800 l 1
 500 383.333007812 l 1
 500 -33.3330078125 l 1
 250 -33.3330078125 l 1
 0 -33.3330078125 l 1
 0 383.333007812 l 1
333.333007812 550 m 1
 333.333007812 633.333007812 l 1
 250 633.333007812 l 1
 166.666992188 633.333007812 l 1
 166.666992188 550 l 1
 166.666992188 466.666992188 l 1
 250 466.666992188 l 1
 333.333007812 466.666992188 l 1
 333.333007812 550 l 1
333.333007812 216.666992188 m 1
 333.333007812 300 l 1
 250 300 l 1
 166.666992188 300 l 1
 166.666992188 216.666992188 l 1
 166.666992188 133.333007812 l 1
 250 133.333007812 l 1
 333.333007812 133.333007812 l 1
 333.333007812 216.666992188 l 1
EndSplineSet
PairPos2: "kern-lut" uni000A dx=0 dy=0 dh=-167 dv=0 dx=0 dy=0 dh=0 dv=0
EndChar

StartChar: nine
Encoding: 57 57 52
Width: 667
VWidth: 0
Flags: W
LayerCount: 2
Fore
SplineSet
0 550 m 1
 0 800 l 1
 250 800 l 1
 500 800 l 1
 500 383.333007812 l 1
 500 -33.3330078125 l 1
 416.666992188 -33.3330078125 l 1
 333.333007812 -33.3330078125 l 1
 333.333007812 133.333007812 l 1
 333.333007812 300 l 1
 166.666992188 300 l 1
 0 300 l 1
 0 550 l 1
333.333007812 550 m 1
 333.333007812 633.333007812 l 1
 250 633.333007812 l 1
 166.666992188 633.333007812 l 1
 166.666992188 550 l 1
 166.666992188 466.666992188 l 1
 250 466.666992188 l 1
 333.333007812 466.666992188 l 1
 333.333007812 550 l 1
EndSplineSet
PairPos2: "kern-lut" uni000A dx=0 dy=0 dh=-167 dv=0 dx=0 dy=0 dh=0 dv=0
EndChar

StartChar: colon
Encoding: 58 58 53
Width: 333
VWidth: 0
Flags: W
LayerCount: 2
Fore
SplineSet
0 550 m 1
 0 633.333007812 l 1
 83.3330078125 633.333007812 l 1
 166.666992188 633.333007812 l 1
 166.666992188 550 l 1
 166.666992188 466.666992188 l 1
 83.3330078125 466.666992188 l 1
 0 466.666992188 l 1
 0 550 l 1
0 216.666992188 m 1
 0 300 l 1
 83.3330078125 300 l 1
 166.666992188 300 l 1
 166.666992188 216.666992188 l 1
 166.666992188 133.333007812 l 1
 83.3330078125 133.333007812 l 1
 0 133.333007812 l 1
 0 216.666992188 l 1
EndSplineSet
PairPos2: "kern-lut" uni000A dx=0 dy=0 dh=-167 dv=0 dx=0 dy=0 dh=0 dv=0
EndChar

StartChar: semicolon
Encoding: 59 59 54
Width: 500
VWidth: 0
Flags: W
LayerCount: 2
Fore
SplineSet
166.666992188 550 m 1
 166.666992188 633.333007812 l 1
 250 633.333007812 l 1
 333.333007812 633.333007812 l 1
 333.333007812 550 l 1
 333.333007812 466.666992188 l 1
 250 466.666992188 l 1
 166.666992188 466.666992188 l 1
 166.666992188 550 l 1
166.666992188 216.666992188 m 1
 166.666992188 300 l 1
 250 300 l 1
 333.333007812 300 l 1
 333.333007812 216.666992188 l 1
 333.333007812 133.333007812 l 1
 250 133.333007812 l 1
 166.666992188 133.333007812 l 1
 166.666992188 50 l 1
 166.666992188 -33.3330078125 l 1
 83.3330078125 -33.3330078125 l 1
 0 -33.3330078125 l 1
 0 50 l 1
 0 133.333007812 l 1
 83.3330078125 133.333007812 l 1
 166.666992188 133.333007812 l 1
 166.666992188 216.666992188 l 1
EndSplineSet
PairPos2: "kern-lut" uni000A dx=0 dy=0 dh=-167 dv=0 dx=0 dy=0 dh=0 dv=0
EndChar

StartChar: less
Encoding: 60 60 55
Width: 667
VWidth: 0
Flags: W
LayerCount: 2
Fore
SplineSet
333.333007812 716.666992188 m 1
 333.333007812 800 l 1
 416.666992188 800 l 1
 500 800 l 1
 500 716.666992188 l 1
 500 633.333007812 l 1
 416.666992188 633.333007812 l 1
 333.333007812 633.333007812 l 1
 333.333007812 550 l 1
 333.333007812 466.666992188 l 1
 250 466.666992188 l 1
 166.666992188 466.666992188 l 1
 166.666992188 383.333007812 l 1
 166.666992188 300 l 1
 250 300 l 1
 333.333007812 300 l 1
 333.333007812 216.666992188 l 1
 333.333007812 133.333007812 l 1
 416.666992188 133.333007812 l 1
 500 133.333007812 l 1
 500 50 l 1
 500 -33.3330078125 l 1
 416.666992188 -33.3330078125 l 1
 333.333007812 -33.3330078125 l 1
 333.333007812 50 l 1
 333.333007812 133.333007812 l 1
 250 133.333007812 l 1
 166.666992188 133.333007812 l 1
 166.666992188 216.666992188 l 1
 166.666992188 300 l 1
 83.3330078125 300 l 1
 0 300 l 1
 0 383.333007812 l 1
 0 466.666992188 l 1
 83.3330078125 466.666992188 l 1
 166.666992188 466.666992188 l 1
 166.666992188 550 l 1
 166.666992188 633.333007812 l 1
 250 633.333007812 l 1
 333.333007812 633.333007812 l 1
 333.333007812 716.666992188 l 1
EndSplineSet
PairPos2: "kern-lut" uni000A dx=0 dy=0 dh=-167 dv=0 dx=0 dy=0 dh=0 dv=0
EndChar

StartChar: equal
Encoding: 61 61 56
Width: 667
VWidth: 0
Flags: W
LayerCount: 2
Fore
SplineSet
0 550 m 1
 0 633.333007812 l 1
 250 633.333007812 l 1
 500 633.333007812 l 1
 500 550 l 1
 500 466.666992188 l 1
 250 466.666992188 l 1
 0 466.666992188 l 1
 0 550 l 1
0 216.666992188 m 1
 0 300 l 1
 250 300 l 1
 500 300 l 1
 500 216.666992188 l 1
 500 133.333007812 l 1
 250 133.333007812 l 1
 0 133.333007812 l 1
 0 216.666992188 l 1
EndSplineSet
PairPos2: "kern-lut" uni000A dx=0 dy=0 dh=-167 dv=0 dx=0 dy=0 dh=0 dv=0
EndChar

StartChar: greater
Encoding: 62 62 57
Width: 667
VWidth: 0
Flags: W
LayerCount: 2
Fore
SplineSet
0 716.666992188 m 1
 0 800 l 1
 83.3330078125 800 l 1
 166.666992188 800 l 1
 166.666992188 716.666992188 l 1
 166.666992188 633.333007812 l 1
 250 633.333007812 l 1
 333.333007812 633.333007812 l 1
 333.333007812 550 l 1
 333.333007812 466.666992188 l 1
 416.666992188 466.666992188 l 1
 500 466.666992188 l 1
 500 383.333007812 l 1
 500 300 l 1
 416.666992188 300 l 1
 333.333007812 300 l 1
 333.333007812 216.666992188 l 1
 333.333007812 133.333007812 l 1
 250 133.333007812 l 1
 166.666992188 133.333007812 l 1
 166.666992188 50 l 1
 166.666992188 -33.3330078125 l 1
 83.3330078125 -33.3330078125 l 1
 0 -33.3330078125 l 1
 0 50 l 1
 0 133.333007812 l 1
 83.3330078125 133.333007812 l 1
 166.666992188 133.333007812 l 1
 166.666992188 216.666992188 l 1
 166.666992188 300 l 1
 250 300 l 1
 333.333007812 300 l 1
 333.333007812 383.333007812 l 1
 333.333007812 466.666992188 l 1
 250 466.666992188 l 1
 166.666992188 466.666992188 l 1
 166.666992188 550 l 1
 166.666992188 633.333007812 l 1
 83.3330078125 633.333007812 l 1
 0 633.333007812 l 1
 0 716.666992188 l 1
EndSplineSet
PairPos2: "kern-lut" uni000A dx=0 dy=0 dh=-167 dv=0 dx=0 dy=0 dh=0 dv=0
EndChar

StartChar: question
Encoding: 63 63 58
Width: 833
VWidth: 0
Flags: W
LayerCount: 2
Fore
SplineSet
0 716.666992188 m 1
 0 800 l 1
 250 800 l 1
 500 800 l 1
 500 550 l 1
 500 300 l 1
 333.333007812 300 l 1
 166.666992188 300 l 1
 166.666992188 383.333007812 l 1
 166.666992188 466.666992188 l 1
 250 466.666992188 l 1
 333.333007812 466.666992188 l 1
 333.333007812 550 l 1
 333.333007812 633.333007812 l 1
 166.666992188 633.333007812 l 1
 0 633.333007812 l 1
 0 716.666992188 l 1
166.666992188 50 m 1
 166.666992188 133.333007812 l 1
 250 133.333007812 l 1
 333.333007812 133.333007812 l 1
 333.333007812 50 l 1
 333.333007812 -33.3330078125 l 1
 250 -33.3330078125 l 1
 166.666992188 -33.3330078125 l 1
 166.666992188 50 l 1
EndSplineSet
PairPos2: "kern-lut" uni000A dx=0 dy=0 dh=-167 dv=0 dx=0 dy=0 dh=0 dv=0
EndChar

StartChar: at
Encoding: 64 64 59
Width: 1000
VWidth: 0
Flags: W
LayerCount: 2
Fore
SplineSet
166.666992188 716.666992188 m 1
 166.666992188 800 l 1
 416.666992188 800 l 1
 666.666992188 800 l 1
 666.666992188 716.666992188 l 1
 666.666992188 633.333007812 l 1
 750 633.333007812 l 1
 833.333007812 633.333007812 l 1
 833.333007812 383.333007812 l 1
 833.333007812 133.333007812 l 1
 750 133.333007812 l 1
 666.666992188 133.333007812 l 1
 666.666992188 50 l 1
 666.666992188 -33.3330078125 l 1
 416.666992188 -33.3330078125 l 1
 166.666992188 -33.3330078125 l 1
 166.666992188 50 l 1
 166.666992188 133.333007812 l 1
 83.3330078125 133.333007812 l 1
 0 133.333007812 l 1
 0 216.666992188 l 1
 0 300 l 1
 83.3330078125 300 l 1
 166.666992188 300 l 1
 166.666992188 383.333007812 l 1
 166.666992188 466.666992188 l 1
 83.3330078125 466.666992188 l 1
 0 466.666992188 l 1
 0 550 l 1
 0 633.333007812 l 1
 83.3330078125 633.333007812 l 1
 166.666992188 633.333007812 l 1
 166.666992188 716.666992188 l 1
666.666992188 383.333007812 m 1
 666.666992188 633.333007812 l 1
 416.666992188 633.333007812 l 1
 166.666992188 633.333007812 l 1
 166.666992188 550 l 1
 166.666992188 466.666992188 l 1
 333.333007812 466.666992188 l 1
 500 466.666992188 l 1
 500 300 l 1
 500 133.333007812 l 1
 583.333007812 133.333007812 l 1
 666.666992188 133.333007812 l 1
 666.666992188 383.333007812 l 1
333.333007812 216.666992188 m 1
 333.333007812 300 l 1
 250 300 l 1
 166.666992188 300 l 1
 166.666992188 216.666992188 l 1
 166.666992188 133.333007812 l 1
 250 133.333007812 l 1
 333.333007812 133.333007812 l 1
 333.333007812 216.666992188 l 1
EndSplineSet
PairPos2: "kern-lut" uni000A dx=0 dy=0 dh=-167 dv=0 dx=0 dy=0 dh=0 dv=0
EndChar

StartChar: A
Encoding: 65 65 60
Width: 667
VWidth: 0
Flags: W
LayerCount: 2
Fore
SplineSet
0 383.333007812 m 1
 0 800 l 1
 250 800 l 1
 500 800 l 1
 500 383.333007812 l 1
 500 -33.3330078125 l 1
 416.666992188 -33.3330078125 l 1
 333.333007812 -33.3330078125 l 1
 333.333007812 133.333007812 l 1
 333.333007812 300 l 1
 250 300 l 1
 166.666992188 300 l 1
 166.666992188 133.333007812 l 1
 166.666992188 -33.3330078125 l 1
 83.3330078125 -33.3330078125 l 1
 0 -33.3330078125 l 1
 0 383.333007812 l 1
333.333007812 550 m 1
 333.333007812 633.333007812 l 1
 250 633.333007812 l 1
 166.666992188 633.333007812 l 1
 166.666992188 550 l 1
 166.666992188 466.666992188 l 1
 250 466.666992188 l 1
 333.333007812 466.666992188 l 1
 333.333007812 550 l 1
EndSplineSet
PairPos2: "kern-lut" uni000A dx=0 dy=0 dh=-167 dv=0 dx=0 dy=0 dh=0 dv=0
EndChar

StartChar: B
Encoding: 66 66 61
Width: 667
VWidth: 0
Flags: W
LayerCount: 2
Fore
SplineSet
0 383.333007812 m 1
 0 800 l 1
 250 800 l 1
 500 800 l 1
 500 633.333007812 l 1
 500 466.666992188 l 1
 416.666992188 466.666992188 l 1
 333.333007812 466.666992188 l 1
 333.333007812 383.333007812 l 1
 333.333007812 300 l 1
 416.666992188 300 l 1
 500 300 l 1
 500 133.333007812 l 1
 500 -33.3330078125 l 1
 250 -33.3330078125 l 1
 0 -33.3330078125 l 1
 0 383.333007812 l 1
333.333007812 550 m 1
 333.333007812 633.333007812 l 1
 250 633.333007812 l 1
 166.666992188 633.333007812 l 1
 166.666992188 550 l 1
 166.666992188 466.666992188 l 1
 250 466.666992188 l 1
 333.333007812 466.666992188 l 1
 333.333007812 550 l 1
333.333007812 216.666992188 m 1
 333.333007812 300 l 1
 250 300 l 1
 166.666992188 300 l 1
 166.666992188 216.666992188 l 1
 166.666992188 133.333007812 l 1
 250 133.333007812 l 1
 333.333007812 133.333007812 l 1
 333.333007812 216.666992188 l 1
EndSplineSet
PairPos2: "kern-lut" uni000A dx=0 dy=0 dh=-167 dv=0 dx=0 dy=0 dh=0 dv=0
EndChar

StartChar: C
Encoding: 67 67 62
Width: 667
VWidth: 0
Flags: W
LayerCount: 2
Fore
SplineSet
0 383.333007812 m 1
 0 800 l 1
 250 800 l 1
 500 800 l 1
 500 716.666992188 l 1
 500 633.333007812 l 1
 333.333007812 633.333007812 l 1
 166.666992188 633.333007812 l 1
 166.666992188 383.333007812 l 1
 166.666992188 133.333007812 l 1
 333.333007812 133.333007812 l 1
 500 133.333007812 l 1
 500 50 l 1
 500 -33.3330078125 l 1
 250 -33.3330078125 l 1
 0 -33.3330078125 l 1
 0 383.333007812 l 1
EndSplineSet
PairPos2: "kern-lut" uni000A dx=0 dy=0 dh=-167 dv=0 dx=0 dy=0 dh=0 dv=0
EndChar

StartChar: D
Encoding: 68 68 63
Width: 667
VWidth: 0
Flags: W
LayerCount: 2
Fore
SplineSet
0 383.333007812 m 1
 0 800 l 1
 166.666992188 800 l 1
 333.333007812 800 l 1
 333.333007812 716.666992188 l 1
 333.333007812 633.333007812 l 1
 416.666992188 633.333007812 l 1
 500 633.333007812 l 1
 500 383.333007812 l 1
 500 133.333007812 l 1
 416.666992188 133.333007812 l 1
 333.333007812 133.333007812 l 1
 333.333007812 50 l 1
 333.333007812 -33.3330078125 l 1
 166.666992188 -33.3330078125 l 1
 0 -33.3330078125 l 1
 0 383.333007812 l 1
333.333007812 383.333007812 m 1
 333.333007812 633.333007812 l 1
 250 633.333007812 l 1
 166.666992188 633.333007812 l 1
 166.666992188 383.333007812 l 1
 166.666992188 133.333007812 l 1
 250 133.333007812 l 1
 333.333007812 133.333007812 l 1
 333.333007812 383.333007812 l 1
EndSplineSet
PairPos2: "kern-lut" uni000A dx=0 dy=0 dh=-167 dv=0 dx=0 dy=0 dh=0 dv=0
EndChar

StartChar: E
Encoding: 69 69 64
Width: 667
VWidth: 0
Flags: W
LayerCount: 2
Fore
SplineSet
0 383.333007812 m 1
 0 800 l 1
 250 800 l 1
 500 800 l 1
 500 716.666992188 l 1
 500 633.333007812 l 1
 333.333007812 633.333007812 l 1
 166.666992188 633.333007812 l 1
 166.666992188 550 l 1
 166.666992188 466.666992188 l 1
 250 466.666992188 l 1
 333.333007812 466.666992188 l 1
 333.333007812 383.333007812 l 1
 333.333007812 300 l 1
 250 300 l 1
 166.666992188 300 l 1
 166.666992188 216.666992188 l 1
 166.666992188 133.333007812 l 1
 333.333007812 133.333007812 l 1
 500 133.333007812 l 1
 500 50 l 1
 500 -33.3330078125 l 1
 250 -33.3330078125 l 1
 0 -33.3330078125 l 1
 0 383.333007812 l 1
EndSplineSet
PairPos2: "kern-lut" uni000A dx=0 dy=0 dh=-167 dv=0 dx=0 dy=0 dh=0 dv=0
EndChar

StartChar: F
Encoding: 70 70 65
Width: 667
VWidth: 0
Flags: W
LayerCount: 2
Fore
SplineSet
0 383.333007812 m 1
 0 800 l 1
 250 800 l 1
 500 800 l 1
 500 716.666992188 l 1
 500 633.333007812 l 1
 333.333007812 633.333007812 l 1
 166.666992188 633.333007812 l 1
 166.666992188 550 l 1
 166.666992188 466.666992188 l 1
 250 466.666992188 l 1
 333.333007812 466.666992188 l 1
 333.333007812 383.333007812 l 1
 333.333007812 300 l 1
 250 300 l 1
 166.666992188 300 l 1
 166.666992188 133.333007812 l 1
 166.666992188 -33.3330078125 l 1
 83.3330078125 -33.3330078125 l 1
 0 -33.3330078125 l 1
 0 383.333007812 l 1
EndSplineSet
PairPos2: "kern-lut" uni000A dx=0 dy=0 dh=-167 dv=0 dx=0 dy=0 dh=0 dv=0
EndChar

StartChar: G
Encoding: 71 71 66
Width: 667
VWidth: 0
Flags: W
LayerCount: 2
Fore
SplineSet
0 383.333007812 m 1
 0 800 l 1
 250 800 l 1
 500 800 l 1
 500 716.666992188 l 1
 500 633.333007812 l 1
 333.333007812 633.333007812 l 1
 166.666992188 633.333007812 l 1
 166.666992188 383.333007812 l 1
 166.666992188 133.333007812 l 1
 250 133.333007812 l 1
 333.333007812 133.333007812 l 1
 333.333007812 300 l 1
 333.333007812 466.666992188 l 1
 416.666992188 466.666992188 l 1
 500 466.666992188 l 1
 500 216.666992188 l 1
 500 -33.3330078125 l 1
 250 -33.3330078125 l 1
 0 -33.3330078125 l 1
 0 383.333007812 l 1
EndSplineSet
PairPos2: "kern-lut" uni000A dx=0 dy=0 dh=-167 dv=0 dx=0 dy=0 dh=0 dv=0
EndChar

StartChar: H
Encoding: 72 72 67
Width: 667
VWidth: 0
Flags: W
LayerCount: 2
Fore
SplineSet
0 383.333007812 m 1
 0 800 l 1
 83.3330078125 800 l 1
 166.666992188 800 l 1
 166.666992188 633.333007812 l 1
 166.666992188 466.666992188 l 1
 250 466.666992188 l 1
 333.333007812 466.666992188 l 1
 333.333007812 633.333007812 l 1
 333.333007812 800 l 1
 416.666992188 800 l 1
 500 800 l 1
 500 383.333007812 l 1
 500 -33.3330078125 l 1
 416.666992188 -33.3330078125 l 1
 333.333007812 -33.3330078125 l 1
 333.333007812 133.333007812 l 1
 333.333007812 300 l 1
 250 300 l 1
 166.666992188 300 l 1
 166.666992188 133.333007812 l 1
 166.666992188 -33.3330078125 l 1
 83.3330078125 -33.3330078125 l 1
 0 -33.3330078125 l 1
 0 383.333007812 l 1
EndSplineSet
PairPos2: "kern-lut" uni000A dx=0 dy=0 dh=-167 dv=0 dx=0 dy=0 dh=0 dv=0
EndChar

StartChar: I
Encoding: 73 73 68
Width: 667
VWidth: 0
Flags: W
LayerCount: 2
Fore
SplineSet
0 716.666992188 m 1
 0 800 l 1
 250 800 l 1
 500 800 l 1
 500 716.666992188 l 1
 500 633.333007812 l 1
 416.666992188 633.333007812 l 1
 333.333007812 633.333007812 l 1
 333.333007812 383.333007812 l 1
 333.333007812 133.333007812 l 1
 416.666992188 133.333007812 l 1
 500 133.333007812 l 1
 500 50 l 1
 500 -33.3330078125 l 1
 250 -33.3330078125 l 1
 0 -33.3330078125 l 1
 0 50 l 1
 0 133.333007812 l 1
 83.3330078125 133.333007812 l 1
 166.666992188 133.333007812 l 1
 166.666992188 383.333007812 l 1
 166.666992188 633.333007812 l 1
 83.3330078125 633.333007812 l 1
 0 633.333007812 l 1
 0 716.666992188 l 1
EndSplineSet
PairPos2: "kern-lut" uni000A dx=0 dy=0 dh=-167 dv=0 dx=0 dy=0 dh=0 dv=0
EndChar

StartChar: J
Encoding: 74 74 69
Width: 667
VWidth: 0
Flags: W
LayerCount: 2
Fore
SplineSet
333.333007812 466.666992188 m 1
 333.333007812 800 l 1
 416.666992188 800 l 1
 500 800 l 1
 500 383.333007812 l 1
 500 -33.3330078125 l 1
 250 -33.3330078125 l 1
 0 -33.3330078125 l 1
 0 133.333007812 l 1
 0 300 l 1
 83.3330078125 300 l 1
 166.666992188 300 l 1
 166.666992188 216.666992188 l 1
 166.666992188 133.333007812 l 1
 250 133.333007812 l 1
 333.333007812 133.333007812 l 1
 333.333007812 466.666992188 l 1
EndSplineSet
PairPos2: "kern-lut" uni000A dx=0 dy=0 dh=-167 dv=0 dx=0 dy=0 dh=0 dv=0
EndChar

StartChar: K
Encoding: 75 75 70
Width: 667
VWidth: 0
Flags: W
LayerCount: 2
Fore
SplineSet
0 383.333007812 m 1
 0 800 l 1
 83.3330078125 800 l 1
 166.666992188 800 l 1
 166.666992188 633.333007812 l 1
 166.666992188 466.666992188 l 1
 250 466.666992188 l 1
 333.333007812 466.666992188 l 1
 333.333007812 633.333007812 l 1
 333.333007812 800 l 1
 416.666992188 800 l 1
 500 800 l 1
 500 633.333007812 l 1
 500 466.666992188 l 1
 416.666992188 466.666992188 l 1
 333.333007812 466.666992188 l 1
 333.333007812 383.333007812 l 1
 333.333007812 300 l 1
 416.666992188 300 l 1
 500 300 l 1
 500 133.333007812 l 1
 500 -33.3330078125 l 1
 416.666992188 -33.3330078125 l 1
 333.333007812 -33.3330078125 l 1
 333.333007812 133.333007812 l 1
 333.333007812 300 l 1
 250 300 l 1
 166.666992188 300 l 1
 166.666992188 133.333007812 l 1
 166.666992188 -33.3330078125 l 1
 83.3330078125 -33.3330078125 l 1
 0 -33.3330078125 l 1
 0 383.333007812 l 1
EndSplineSet
PairPos2: "kern-lut" uni000A dx=0 dy=0 dh=-167 dv=0 dx=0 dy=0 dh=0 dv=0
EndChar

StartChar: L
Encoding: 76 76 71
Width: 667
VWidth: 0
Flags: W
LayerCount: 2
Fore
SplineSet
0 383.333007812 m 1
 0 800 l 1
 83.3330078125 800 l 1
 166.666992188 800 l 1
 166.666992188 466.666992188 l 1
 166.666992188 133.333007812 l 1
 333.333007812 133.333007812 l 1
 500 133.333007812 l 1
 500 50 l 1
 500 -33.3330078125 l 1
 250 -33.3330078125 l 1
 0 -33.3330078125 l 1
 0 383.333007812 l 1
EndSplineSet
PairPos2: "kern-lut" uni000A dx=0 dy=0 dh=-167 dv=0 dx=0 dy=0 dh=0 dv=0
EndChar

StartChar: M
Encoding: 77 77 72
Width: 1000
VWidth: 0
Flags: W
LayerCount: 2
Fore
SplineSet
0 383.333007812 m 1
 0 800 l 1
 416.666992188 800 l 1
 833.333007812 800 l 1
 833.333007812 383.333007812 l 1
 833.333007812 -33.3330078125 l 1
 750 -33.3330078125 l 1
 666.666992188 -33.3330078125 l 1
 666.666992188 300 l 1
 666.666992188 633.333007812 l 1
 583.333007812 633.333007812 l 1
 500 633.333007812 l 1
 500 466.666992188 l 1
 500 300 l 1
 416.666992188 300 l 1
 333.333007812 300 l 1
 333.333007812 466.666992188 l 1
 333.333007812 633.333007812 l 1
 250 633.333007812 l 1
 166.666992188 633.333007812 l 1
 166.666992188 300 l 1
 166.666992188 -33.3330078125 l 1
 83.3330078125 -33.3330078125 l 1
 0 -33.3330078125 l 1
 0 383.333007812 l 1
EndSplineSet
PairPos2: "kern-lut" uni000A dx=0 dy=0 dh=-167 dv=0 dx=0 dy=0 dh=0 dv=0
EndChar

StartChar: N
Encoding: 78 78 73
Width: 667
VWidth: 0
Flags: W
LayerCount: 2
Fore
SplineSet
0 383.333007812 m 1
 0 800 l 1
 250 800 l 1
 500 800 l 1
 500 383.333007812 l 1
 500 -33.3330078125 l 1
 416.666992188 -33.3330078125 l 1
 333.333007812 -33.3330078125 l 1
 333.333007812 300 l 1
 333.333007812 633.333007812 l 1
 250 633.333007812 l 1
 166.666992188 633.333007812 l 1
 166.666992188 300 l 1
 166.666992188 -33.3330078125 l 1
 83.3330078125 -33.3330078125 l 1
 0 -33.3330078125 l 1
 0 383.333007812 l 1
EndSplineSet
PairPos2: "kern-lut" uni000A dx=0 dy=0 dh=-167 dv=0 dx=0 dy=0 dh=0 dv=0
EndChar

StartChar: O
Encoding: 79 79 74
Width: 667
VWidth: 0
Flags: W
LayerCount: 2
Fore
SplineSet
0 383.333007812 m 1
 0 800 l 1
 250 800 l 1
 500 800 l 1
 500 383.333007812 l 1
 500 -33.3330078125 l 1
 250 -33.3330078125 l 1
 0 -33.3330078125 l 1
 0 383.333007812 l 1
333.333007812 383.333007812 m 1
 333.333007812 633.333007812 l 1
 250 633.333007812 l 1
 166.666992188 633.333007812 l 1
 166.666992188 383.333007812 l 1
 166.666992188 133.333007812 l 1
 250 133.333007812 l 1
 333.333007812 133.333007812 l 1
 333.333007812 383.333007812 l 1
EndSplineSet
PairPos2: "kern-lut" uni000A dx=0 dy=0 dh=-167 dv=0 dx=0 dy=0 dh=0 dv=0
EndChar

StartChar: P
Encoding: 80 80 75
Width: 667
VWidth: 0
Flags: W
LayerCount: 2
Fore
SplineSet
0 383.333007812 m 1
 0 800 l 1
 250 800 l 1
 500 800 l 1
 500 550 l 1
 500 300 l 1
 333.333007812 300 l 1
 166.666992188 300 l 1
 166.666992188 133.333007812 l 1
 166.666992188 -33.3330078125 l 1
 83.3330078125 -33.3330078125 l 1
 0 -33.3330078125 l 1
 0 383.333007812 l 1
333.333007812 550 m 1
 333.333007812 633.333007812 l 1
 250 633.333007812 l 1
 166.666992188 633.333007812 l 1
 166.666992188 550 l 1
 166.666992188 466.666992188 l 1
 250 466.666992188 l 1
 333.333007812 466.666992188 l 1
 333.333007812 550 l 1
EndSplineSet
PairPos2: "kern-lut" S dx=0 dy=0 dh=-167 dv=0 dx=0 dy=0 dh=0 dv=0
PairPos2: "kern-lut" uni000A dx=0 dy=0 dh=-167 dv=0 dx=0 dy=0 dh=0 dv=0
EndChar

StartChar: Q
Encoding: 81 81 76
Width: 667
VWidth: 0
Flags: W
LayerCount: 2
Fore
SplineSet
0 383.333007812 m 1
 0 800 l 1
 250 800 l 1
 500 800 l 1
 500 466.666992188 l 1
 500 133.333007812 l 1
 416.666992188 133.333007812 l 1
 333.333007812 133.333007812 l 1
 333.333007812 50 l 1
 333.333007812 -33.3330078125 l 1
 416.666992188 -33.3330078125 l 1
 500 -33.3330078125 l 1
 500 -116.666992188 l 1
 500 -200 l 1
 416.666992188 -200 l 1
 333.333007812 -200 l 1
 333.333007812 -116.666992188 l 1
 333.333007812 -33.3330078125 l 1
 166.666992188 -33.3330078125 l 1
 0 -33.3330078125 l 1
 0 383.333007812 l 1
333.333007812 383.333007812 m 1
 333.333007812 633.333007812 l 1
 250 633.333007812 l 1
 166.666992188 633.333007812 l 1
 166.666992188 383.333007812 l 1
 166.666992188 133.333007812 l 1
 250 133.333007812 l 1
 333.333007812 133.333007812 l 1
 333.333007812 383.333007812 l 1
EndSplineSet
PairPos2: "kern-lut" uni000A dx=0 dy=0 dh=-167 dv=0 dx=0 dy=0 dh=0 dv=0
EndChar

StartChar: R
Encoding: 82 82 77
Width: 667
VWidth: 0
Flags: W
LayerCount: 2
Fore
SplineSet
0 383.333007812 m 1
 0 800 l 1
 250 800 l 1
 500 800 l 1
 500 633.333007812 l 1
 500 466.666992188 l 1
 416.666992188 466.666992188 l 1
 333.333007812 466.666992188 l 1
 333.333007812 383.333007812 l 1
 333.333007812 300 l 1
 416.666992188 300 l 1
 500 300 l 1
 500 133.333007812 l 1
 500 -33.3330078125 l 1
 416.666992188 -33.3330078125 l 1
 333.333007812 -33.3330078125 l 1
 333.333007812 133.333007812 l 1
 333.333007812 300 l 1
 250 300 l 1
 166.666992188 300 l 1
 166.666992188 133.333007812 l 1
 166.666992188 -33.3330078125 l 1
 83.3330078125 -33.3330078125 l 1
 0 -33.3330078125 l 1
 0 383.333007812 l 1
333.333007812 550 m 1
 333.333007812 633.333007812 l 1
 250 633.333007812 l 1
 166.666992188 633.333007812 l 1
 166.666992188 550 l 1
 166.666992188 466.666992188 l 1
 250 466.666992188 l 1
 333.333007812 466.666992188 l 1
 333.333007812 550 l 1
EndSplineSet
PairPos2: "kern-lut" uni000A dx=0 dy=0 dh=-167 dv=0 dx=0 dy=0 dh=0 dv=0
EndChar

StartChar: S
Encoding: 83 83 78
Width: 667
VWidth: 0
Flags: W
LayerCount: 2
Fore
SplineSet
166.666992188 466.666992188 m 1
 166.666992188 800 l 1
 333.333007812 800 l 1
 500 800 l 1
 500 716.666992188 l 1
 500 633.333007812 l 1
 416.666992188 633.333007812 l 1
 333.333007812 633.333007812 l 1
 333.333007812 300 l 1
 333.333007812 -33.3330078125 l 1
 166.666992188 -33.3330078125 l 1
 0 -33.3330078125 l 1
 0 50 l 1
 0 133.333007812 l 1
 83.3330078125 133.333007812 l 1
 166.666992188 133.333007812 l 1
 166.666992188 466.666992188 l 1
EndSplineSet
PairPos2: "kern-lut" uni000A dx=0 dy=0 dh=-167 dv=0 dx=0 dy=0 dh=0 dv=0
EndChar

StartChar: T
Encoding: 84 84 79
Width: 667
VWidth: 0
Flags: W
LayerCount: 2
Fore
SplineSet
0 716.666992188 m 1
 0 800 l 1
 250 800 l 1
 500 800 l 1
 500 716.666992188 l 1
 500 633.333007812 l 1
 416.666992188 633.333007812 l 1
 333.333007812 633.333007812 l 1
 333.333007812 300 l 1
 333.333007812 -33.3330078125 l 1
 250 -33.3330078125 l 1
 166.666992188 -33.3330078125 l 1
 166.666992188 300 l 1
 166.666992188 633.333007812 l 1
 83.3330078125 633.333007812 l 1
 0 633.333007812 l 1
 0 716.666992188 l 1
EndSplineSet
PairPos2: "kern-lut" uni000A dx=0 dy=0 dh=-167 dv=0 dx=0 dy=0 dh=0 dv=0
EndChar

StartChar: U
Encoding: 85 85 80
Width: 667
VWidth: 0
Flags: W
LayerCount: 2
Fore
SplineSet
0 383.333007812 m 1
 0 800 l 1
 83.3330078125 800 l 1
 166.666992188 800 l 1
 166.666992188 466.666992188 l 1
 166.666992188 133.333007812 l 1
 250 133.333007812 l 1
 333.333007812 133.333007812 l 1
 333.333007812 466.666992188 l 1
 333.333007812 800 l 1
 416.666992188 800 l 1
 500 800 l 1
 500 383.333007812 l 1
 500 -33.3330078125 l 1
 250 -33.3330078125 l 1
 0 -33.3330078125 l 1
 0 383.333007812 l 1
EndSplineSet
PairPos2: "kern-lut" uni000A dx=0 dy=0 dh=-167 dv=0 dx=0 dy=0 dh=0 dv=0
EndChar

StartChar: V
Encoding: 86 86 81
Width: 667
VWidth: 0
Flags: W
LayerCount: 2
Fore
SplineSet
0 466.666992188 m 1
 0 800 l 1
 83.3330078125 800 l 1
 166.666992188 800 l 1
 166.666992188 550 l 1
 166.666992188 300 l 1
 250 300 l 1
 333.333007812 300 l 1
 333.333007812 550 l 1
 333.333007812 800 l 1
 416.666992188 800 l 1
 500 800 l 1
 500 466.666992188 l 1
 500 133.333007812 l 1
 416.666992188 133.333007812 l 1
 333.333007812 133.333007812 l 1
 333.333007812 50 l 1
 333.333007812 -33.3330078125 l 1
 250 -33.3330078125 l 1
 166.666992188 -33.3330078125 l 1
 166.666992188 50 l 1
 166.666992188 133.333007812 l 1
 83.3330078125 133.333007812 l 1
 0 133.333007812 l 1
 0 466.666992188 l 1
EndSplineSet
PairPos2: "kern-lut" uni000A dx=0 dy=0 dh=-167 dv=0 dx=0 dy=0 dh=0 dv=0
EndChar

StartChar: W
Encoding: 87 87 82
Width: 1000
VWidth: 0
Flags: W
LayerCount: 2
Fore
SplineSet
0 383.333007812 m 1
 0 800 l 1
 83.3330078125 800 l 1
 166.666992188 800 l 1
 166.666992188 466.666992188 l 1
 166.666992188 133.333007812 l 1
 250 133.333007812 l 1
 333.333007812 133.333007812 l 1
 333.333007812 383.333007812 l 1
 333.333007812 633.333007812 l 1
 416.666992188 633.333007812 l 1
 500 633.333007812 l 1
 500 383.333007812 l 1
 500 133.333007812 l 1
 583.333007812 133.333007812 l 1
 666.666992188 133.333007812 l 1
 666.666992188 466.666992188 l 1
 666.666992188 800 l 1
 750 800 l 1
 833.333007812 800 l 1
 833.333007812 383.333007812 l 1
 833.333007812 -33.3330078125 l 1
 416.666992188 -33.3330078125 l 1
 0 -33.3330078125 l 1
 0 383.333007812 l 1
EndSplineSet
PairPos2: "kern-lut" uni000A dx=0 dy=0 dh=-167 dv=0 dx=0 dy=0 dh=0 dv=0
EndChar

StartChar: X
Encoding: 88 88 83
Width: 667
VWidth: 0
Flags: W
LayerCount: 2
Fore
SplineSet
0 633.333007812 m 1
 0 800 l 1
 83.3330078125 800 l 1
 166.666992188 800 l 1
 166.666992188 633.333007812 l 1
 166.666992188 466.666992188 l 1
 250 466.666992188 l 1
 333.333007812 466.666992188 l 1
 333.333007812 633.333007812 l 1
 333.333007812 800 l 1
 416.666992188 800 l 1
 500 800 l 1
 500 633.333007812 l 1
 500 466.666992188 l 1
 416.666992188 466.666992188 l 1
 333.333007812 466.666992188 l 1
 333.333007812 383.333007812 l 1
 333.333007812 300 l 1
 416.666992188 300 l 1
 500 300 l 1
 500 133.333007812 l 1
 500 -33.3330078125 l 1
 416.666992188 -33.3330078125 l 1
 333.333007812 -33.3330078125 l 1
 333.333007812 133.333007812 l 1
 333.333007812 300 l 1
 250 300 l 1
 166.666992188 300 l 1
 166.666992188 133.333007812 l 1
 166.666992188 -33.3330078125 l 1
 83.3330078125 -33.3330078125 l 1
 0 -33.3330078125 l 1
 0 133.333007812 l 1
 0 300 l 1
 83.3330078125 300 l 1
 166.666992188 300 l 1
 166.666992188 383.333007812 l 1
 166.666992188 466.666992188 l 1
 83.3330078125 466.666992188 l 1
 0 466.666992188 l 1
 0 633.333007812 l 1
EndSplineSet
PairPos2: "kern-lut" uni000A dx=0 dy=0 dh=-167 dv=0 dx=0 dy=0 dh=0 dv=0
EndChar

StartChar: Y
Encoding: 89 89 84
Width: 667
VWidth: 0
Flags: W
LayerCount: 2
Fore
SplineSet
0 550 m 1
 0 800 l 1
 83.3330078125 800 l 1
 166.666992188 800 l 1
 166.666992188 633.333007812 l 1
 166.666992188 466.666992188 l 1
 250 466.666992188 l 1
 333.333007812 466.666992188 l 1
 333.333007812 633.333007812 l 1
 333.333007812 800 l 1
 416.666992188 800 l 1
 500 800 l 1
 500 550 l 1
 500 300 l 1
 416.666992188 300 l 1
 333.333007812 300 l 1
 333.333007812 133.333007812 l 1
 333.333007812 -33.3330078125 l 1
 250 -33.3330078125 l 1
 166.666992188 -33.3330078125 l 1
 166.666992188 133.333007812 l 1
 166.666992188 300 l 1
 83.3330078125 300 l 1
 0 300 l 1
 0 550 l 1
EndSplineSet
PairPos2: "kern-lut" uni000A dx=0 dy=0 dh=-167 dv=0 dx=0 dy=0 dh=0 dv=0
EndChar

StartChar: Z
Encoding: 90 90 85
Width: 667
VWidth: 0
Flags: W
LayerCount: 2
Fore
SplineSet
0 716.666992188 m 1
 0 800 l 1
 166.666992188 800 l 1
 333.333007812 800 l 1
 333.333007812 466.666992188 l 1
 333.333007812 133.333007812 l 1
 416.666992188 133.333007812 l 1
 500 133.333007812 l 1
 500 50 l 1
 500 -33.3330078125 l 1
 333.333007812 -33.3330078125 l 1
 166.666992188 -33.3330078125 l 1
 166.666992188 300 l 1
 166.666992188 633.333007812 l 1
 83.3330078125 633.333007812 l 1
 0 633.333007812 l 1
 0 716.666992188 l 1
EndSplineSet
PairPos2: "kern-lut" uni000A dx=0 dy=0 dh=-167 dv=0 dx=0 dy=0 dh=0 dv=0
EndChar

StartChar: bracketleft
Encoding: 91 91 86
Width: 500
VWidth: 0
Flags: W
LayerCount: 2
Fore
SplineSet
0 383.333007812 m 1
 0 800 l 1
 166.666992188 800 l 1
 333.333007812 800 l 1
 333.333007812 716.666992188 l 1
 333.333007812 633.333007812 l 1
 250 633.333007812 l 1
 166.666992188 633.333007812 l 1
 166.666992188 383.333007812 l 1
 166.666992188 133.333007812 l 1
 250 133.333007812 l 1
 333.333007812 133.333007812 l 1
 333.333007812 50 l 1
 333.333007812 -33.3330078125 l 1
 166.666992188 -33.3330078125 l 1
 0 -33.3330078125 l 1
 0 383.333007812 l 1
EndSplineSet
PairPos2: "kern-lut" uni000A dx=0 dy=0 dh=-167 dv=0 dx=0 dy=0 dh=0 dv=0
EndChar

StartChar: backslash
Encoding: 92 92 87
Width: 667
VWidth: 0
Flags: W
LayerCount: 2
Fore
SplineSet
0 633.333007812 m 1
 0 800 l 1
 83.3330078125 800 l 1
 166.666992188 800 l 1
 166.666992188 633.333007812 l 1
 166.666992188 466.666992188 l 1
 250 466.666992188 l 1
 333.333007812 466.666992188 l 1
 333.333007812 300 l 1
 333.333007812 133.333007812 l 1
 416.666992188 133.333007812 l 1
 500 133.333007812 l 1
 500 -33.3330078125 l 1
 500 -200 l 1
 416.666992188 -200 l 1
 333.333007812 -200 l 1
 333.333007812 -33.3330078125 l 1
 333.333007812 133.333007812 l 1
 250 133.333007812 l 1
 166.666992188 133.333007812 l 1
 166.666992188 300 l 1
 166.666992188 466.666992188 l 1
 83.3330078125 466.666992188 l 1
 0 466.666992188 l 1
 0 633.333007812 l 1
EndSplineSet
PairPos2: "kern-lut" uni000A dx=0 dy=0 dh=-167 dv=0 dx=0 dy=0 dh=0 dv=0
EndChar

StartChar: bracketright
Encoding: 93 93 88
Width: 500
VWidth: 0
Flags: W
LayerCount: 2
Fore
SplineSet
0 716.666992188 m 1
 0 800 l 1
 166.666992188 800 l 1
 333.333007812 800 l 1
 333.333007812 383.333007812 l 1
 333.333007812 -33.3330078125 l 1
 166.666992188 -33.3330078125 l 1
 0 -33.3330078125 l 1
 0 50 l 1
 0 133.333007812 l 1
 83.3330078125 133.333007812 l 1
 166.666992188 133.333007812 l 1
 166.666992188 383.333007812 l 1
 166.666992188 633.333007812 l 1
 83.3330078125 633.333007812 l 1
 0 633.333007812 l 1
 0 716.666992188 l 1
EndSplineSet
PairPos2: "kern-lut" uni000A dx=0 dy=0 dh=-167 dv=0 dx=0 dy=0 dh=0 dv=0
EndChar

StartChar: asciicircum
Encoding: 94 94 89
Width: 667
VWidth: 0
Flags: W
LayerCount: 2
Fore
SplineSet
166.666992188 716.666992188 m 1
 166.666992188 800 l 1
 250 800 l 1
 333.333007812 800 l 1
 333.333007812 716.666992188 l 1
 333.333007812 633.333007812 l 1
 416.666992188 633.333007812 l 1
 500 633.333007812 l 1
 500 550 l 1
 500 466.666992188 l 1
 416.666992188 466.666992188 l 1
 333.333007812 466.666992188 l 1
 333.333007812 550 l 1
 333.333007812 633.333007812 l 1
 250 633.333007812 l 1
 166.666992188 633.333007812 l 1
 166.666992188 550 l 1
 166.666992188 466.666992188 l 1
 83.3330078125 466.666992188 l 1
 0 466.666992188 l 1
 0 550 l 1
 0 633.333007812 l 1
 83.3330078125 633.333007812 l 1
 166.666992188 633.333007812 l 1
 166.666992188 716.666992188 l 1
EndSplineSet
PairPos2: "kern-lut" uni000A dx=0 dy=0 dh=-167 dv=0 dx=0 dy=0 dh=0 dv=0
EndChar

StartChar: underscore
Encoding: 95 95 90
Width: 667
VWidth: 0
Flags: W
LayerCount: 2
Fore
SplineSet
0 -116.666992188 m 1
 0 -33.3330078125 l 1
 250 -33.3330078125 l 1
 500 -33.3330078125 l 1
 500 -116.666992188 l 1
 500 -200 l 1
 250 -200 l 1
 0 -200 l 1
 0 -116.666992188 l 1
EndSplineSet
PairPos2: "kern-lut" t dx=0 dy=0 dh=-167 dv=0 dx=0 dy=0 dh=0 dv=0
PairPos2: "kern-lut" grave dx=0 dy=0 dh=-167 dv=0 dx=0 dy=0 dh=0 dv=0
PairPos2: "kern-lut" uni000A dx=0 dy=0 dh=-167 dv=0 dx=0 dy=0 dh=0 dv=0
EndChar

StartChar: grave
Encoding: 96 96 91
Width: 500
VWidth: 0
Flags: W
LayerCount: 2
Fore
SplineSet
0 716.666992188 m 1
 0 800 l 1
 83.3330078125 800 l 1
 166.666992188 800 l 1
 166.666992188 716.666992188 l 1
 166.666992188 633.333007812 l 1
 250 633.333007812 l 1
 333.333007812 633.333007812 l 1
 333.333007812 550 l 1
 333.333007812 466.666992188 l 1
 250 466.666992188 l 1
 166.666992188 466.666992188 l 1
 166.666992188 550 l 1
 166.666992188 633.333007812 l 1
 83.3330078125 633.333007812 l 1
 0 633.333007812 l 1
 0 716.666992188 l 1
EndSplineSet
PairPos2: "kern-lut" uni000A dx=0 dy=0 dh=-167 dv=0 dx=0 dy=0 dh=0 dv=0
EndChar

StartChar: a
Encoding: 97 97 92
Width: 667
VWidth: 0
Flags: W
LayerCount: 2
Fore
SplineSet
166.666992188 550 m 1
 166.666992188 633.333007812 l 1
 333.333007812 633.333007812 l 1
 500 633.333007812 l 1
 500 300 l 1
 500 -33.3330078125 l 1
 333.333007812 -33.3330078125 l 1
 166.666992188 -33.3330078125 l 1
 166.666992188 50 l 1
 166.666992188 133.333007812 l 1
 83.3330078125 133.333007812 l 1
 0 133.333007812 l 1
 0 300 l 1
 0 466.666992188 l 1
 83.3330078125 466.666992188 l 1
 166.666992188 466.666992188 l 1
 166.666992188 550 l 1
333.333007812 300 m 1
 333.333007812 466.666992188 l 1
 250 466.666992188 l 1
 166.666992188 466.666992188 l 1
 166.666992188 300 l 1
 166.666992188 133.333007812 l 1
 250 133.333007812 l 1
 333.333007812 133.333007812 l 1
 333.333007812 300 l 1
EndSplineSet
PairPos2: "kern-lut" uni000A dx=0 dy=0 dh=-167 dv=0 dx=0 dy=0 dh=0 dv=0
EndChar

StartChar: b
Encoding: 98 98 93
Width: 667
VWidth: 0
Flags: W
LayerCount: 2
Fore
SplineSet
0 383.333007812 m 1
 0 800 l 1
 83.3330078125 800 l 1
 166.666992188 800 l 1
 166.666992188 716.666992188 l 1
 166.666992188 633.333007812 l 1
 333.333007812 633.333007812 l 1
 500 633.333007812 l 1
 500 300 l 1
 500 -33.3330078125 l 1
 250 -33.3330078125 l 1
 0 -33.3330078125 l 1
 0 383.333007812 l 1
333.333007812 300 m 1
 333.333007812 466.666992188 l 1
 250 466.666992188 l 1
 166.666992188 466.666992188 l 1
 166.666992188 300 l 1
 166.666992188 133.333007812 l 1
 250 133.333007812 l 1
 333.333007812 133.333007812 l 1
 333.333007812 300 l 1
EndSplineSet
PairPos2: "kern-lut" uni000A dx=0 dy=0 dh=-167 dv=0 dx=0 dy=0 dh=0 dv=0
EndChar

StartChar: c
Encoding: 99 99 94
Width: 667
VWidth: 0
Flags: W
LayerCount: 2
Fore
SplineSet
0 300 m 1
 0 633.333007812 l 1
 250 633.333007812 l 1
 500 633.333007812 l 1
 500 550 l 1
 500 466.666992188 l 1
 333.333007812 466.666992188 l 1
 166.666992188 466.666992188 l 1
 166.666992188 300 l 1
 166.666992188 133.333007812 l 1
 333.333007812 133.333007812 l 1
 500 133.333007812 l 1
 500 50 l 1
 500 -33.3330078125 l 1
 250 -33.3330078125 l 1
 0 -33.3330078125 l 1
 0 300 l 1
EndSplineSet
PairPos2: "kern-lut" uni000A dx=0 dy=0 dh=-167 dv=0 dx=0 dy=0 dh=0 dv=0
EndChar

StartChar: d
Encoding: 100 100 95
Width: 667
VWidth: 0
Flags: W
LayerCount: 2
Fore
SplineSet
333.333007812 716.666992188 m 1
 333.333007812 800 l 1
 416.666992188 800 l 1
 500 800 l 1
 500 383.333007812 l 1
 500 -33.3330078125 l 1
 250 -33.3330078125 l 1
 0 -33.3330078125 l 1
 0 300 l 1
 0 633.333007812 l 1
 166.666992188 633.333007812 l 1
 333.333007812 633.333007812 l 1
 333.333007812 716.666992188 l 1
333.333007812 300 m 1
 333.333007812 466.666992188 l 1
 250 466.666992188 l 1
 166.666992188 466.666992188 l 1
 166.666992188 300 l 1
 166.666992188 133.333007812 l 1
 250 133.333007812 l 1
 333.333007812 133.333007812 l 1
 333.333007812 300 l 1
EndSplineSet
PairPos2: "kern-lut" uni000A dx=0 dy=0 dh=-167 dv=0 dx=0 dy=0 dh=0 dv=0
EndChar

StartChar: e
Encoding: 101 101 96
Width: 667
VWidth: 0
Flags: W
LayerCount: 2
Fore
SplineSet
166.666992188 550 m 1
 166.666992188 633.333007812 l 1
 333.333007812 633.333007812 l 1
 500 633.333007812 l 1
 500 466.666992188 l 1
 500 300 l 1
 416.666992188 300 l 1
 333.333007812 300 l 1
 333.333007812 216.666992188 l 1
 333.333007812 133.333007812 l 1
 416.666992188 133.333007812 l 1
 500 133.333007812 l 1
 500 50 l 1
 500 -33.3330078125 l 1
 333.333007812 -33.3330078125 l 1
 166.666992188 -33.3330078125 l 1
 166.666992188 50 l 1
 166.666992188 133.333007812 l 1
 83.3330078125 133.333007812 l 1
 0 133.333007812 l 1
 0 300 l 1
 0 466.666992188 l 1
 83.3330078125 466.666992188 l 1
 166.666992188 466.666992188 l 1
 166.666992188 550 l 1
333.333007812 383.333007812 m 1
 333.333007812 466.666992188 l 1
 250 466.666992188 l 1
 166.666992188 466.666992188 l 1
 166.666992188 383.333007812 l 1
 166.666992188 300 l 1
 250 300 l 1
 333.333007812 300 l 1
 333.333007812 383.333007812 l 1
EndSplineSet
PairPos2: "kern-lut" uni000A dx=0 dy=0 dh=-167 dv=0 dx=0 dy=0 dh=0 dv=0
EndChar

StartChar: f
Encoding: 102 102 97
Width: 667
VWidth: 0
Flags: W
LayerCount: 2
Fore
SplineSet
166.666992188 633.333007812 m 1
 166.666992188 800 l 1
 333.333007812 800 l 1
 500 800 l 1
 500 716.666992188 l 1
 500 633.333007812 l 1
 416.666992188 633.333007812 l 1
 333.333007812 633.333007812 l 1
 333.333007812 550 l 1
 333.333007812 466.666992188 l 1
 416.666992188 466.666992188 l 1
 500 466.666992188 l 1
 500 383.333007812 l 1
 500 300 l 1
 416.666992188 300 l 1
 333.333007812 300 l 1
 333.333007812 133.333007812 l 1
 333.333007812 -33.3330078125 l 1
 250 -33.3330078125 l 1
 166.666992188 -33.3330078125 l 1
 166.666992188 133.333007812 l 1
 166.666992188 300 l 1
 83.3330078125 300 l 1
 0 300 l 1
 0 383.333007812 l 1
 0 466.666992188 l 1
 83.3330078125 466.666992188 l 1
 166.666992188 466.666992188 l 1
 166.666992188 633.333007812 l 1
EndSplineSet
PairPos2: "kern-lut" uni000A dx=0 dy=0 dh=-167 dv=0 dx=0 dy=0 dh=0 dv=0
EndChar

StartChar: g
Encoding: 103 103 98
Width: 667
VWidth: 0
Flags: W
LayerCount: 2
Fore
SplineSet
166.666992188 550 m 1
 166.666992188 633.333007812 l 1
 333.333007812 633.333007812 l 1
 500 633.333007812 l 1
 500 300 l 1
 500 -33.3330078125 l 1
 416.666992188 -33.3330078125 l 1
 333.333007812 -33.3330078125 l 1
 333.333007812 -116.666992188 l 1
 333.333007812 -200 l 1
 166.666992188 -200 l 1
 0 -200 l 1
 0 -116.666992188 l 1
 0 -33.3330078125 l 1
 83.3330078125 -33.3330078125 l 1
 166.666992188 -33.3330078125 l 1
 166.666992188 50 l 1
 166.666992188 133.333007812 l 1
 83.3330078125 133.333007812 l 1
 0 133.333007812 l 1
 0 300 l 1
 0 466.666992188 l 1
 83.3330078125 466.666992188 l 1
 166.666992188 466.666992188 l 1
 166.666992188 550 l 1
333.333007812 300 m 1
 333.333007812 466.666992188 l 1
 250 466.666992188 l 1
 166.666992188 466.666992188 l 1
 166.666992188 300 l 1
 166.666992188 133.333007812 l 1
 250 133.333007812 l 1
 333.333007812 133.333007812 l 1
 333.333007812 300 l 1
EndSplineSet
PairPos2: "kern-lut" uni000A dx=0 dy=0 dh=-167 dv=0 dx=0 dy=0 dh=0 dv=0
EndChar

StartChar: h
Encoding: 104 104 99
Width: 667
VWidth: 0
Flags: W
LayerCount: 2
Fore
SplineSet
0 383.333007812 m 1
 0 800 l 1
 83.3330078125 800 l 1
 166.666992188 800 l 1
 166.666992188 716.666992188 l 1
 166.666992188 633.333007812 l 1
 333.333007812 633.333007812 l 1
 500 633.333007812 l 1
 500 300 l 1
 500 -33.3330078125 l 1
 416.666992188 -33.3330078125 l 1
 333.333007812 -33.3330078125 l 1
 333.333007812 216.666992188 l 1
 333.333007812 466.666992188 l 1
 250 466.666992188 l 1
 166.666992188 466.666992188 l 1
 166.666992188 216.666992188 l 1
 166.666992188 -33.3330078125 l 1
 83.3330078125 -33.3330078125 l 1
 0 -33.3330078125 l 1
 0 383.333007812 l 1
EndSplineSet
PairPos2: "kern-lut" uni000A dx=0 dy=0 dh=-167 dv=0 dx=0 dy=0 dh=0 dv=0
EndChar

StartChar: i
Encoding: 105 105 100
Width: 333
VWidth: 0
Flags: W
LayerCount: 2
Fore
SplineSet
0 300 m 1
 0 633.333007812 l 1
 83.3330078125 633.333007812 l 1
 166.666992188 633.333007812 l 1
 166.666992188 300 l 1
 166.666992188 -33.3330078125 l 1
 83.3330078125 -33.3330078125 l 1
 0 -33.3330078125 l 1
 0 300 l 1
EndSplineSet
PairPos2: "kern-lut" uni000A dx=0 dy=0 dh=-167 dv=0 dx=0 dy=0 dh=0 dv=0
EndChar

StartChar: j
Encoding: 106 106 101
Width: 667
VWidth: 0
Flags: W
LayerCount: 2
Fore
SplineSet
333.333007812 300 m 1
 333.333007812 633.333007812 l 1
 416.666992188 633.333007812 l 1
 500 633.333007812 l 1
 500 216.666992188 l 1
 500 -200 l 1
 250 -200 l 1
 0 -200 l 1
 0 -33.3330078125 l 1
 0 133.333007812 l 1
 83.3330078125 133.333007812 l 1
 166.666992188 133.333007812 l 1
 166.666992188 50 l 1
 166.666992188 -33.3330078125 l 1
 250 -33.3330078125 l 1
 333.333007812 -33.3330078125 l 1
 333.333007812 300 l 1
EndSplineSet
PairPos2: "kern-lut" uni000A dx=0 dy=0 dh=-167 dv=0 dx=0 dy=0 dh=0 dv=0
EndChar

StartChar: k
Encoding: 107 107 102
Width: 667
VWidth: 0
Flags: W
LayerCount: 2
Fore
SplineSet
0 383.333007812 m 1
 0 800 l 1
 83.3330078125 800 l 1
 166.666992188 800 l 1
 166.666992188 633.333007812 l 1
 166.666992188 466.666992188 l 1
 250 466.666992188 l 1
 333.333007812 466.666992188 l 1
 333.333007812 550 l 1
 333.333007812 633.333007812 l 1
 416.666992188 633.333007812 l 1
 500 633.333007812 l 1
 500 550 l 1
 500 466.666992188 l 1
 416.666992188 466.666992188 l 1
 333.333007812 466.666992188 l 1
 333.333007812 383.333007812 l 1
 333.333007812 300 l 1
 416.666992188 300 l 1
 500 300 l 1
 500 133.333007812 l 1
 500 -33.3330078125 l 1
 416.666992188 -33.3330078125 l 1
 333.333007812 -33.3330078125 l 1
 333.333007812 133.333007812 l 1
 333.333007812 300 l 1
 250 300 l 1
 166.666992188 300 l 1
 166.666992188 133.333007812 l 1
 166.666992188 -33.3330078125 l 1
 83.3330078125 -33.3330078125 l 1
 0 -33.3330078125 l 1
 0 383.333007812 l 1
EndSplineSet
PairPos2: "kern-lut" uni000A dx=0 dy=0 dh=-167 dv=0 dx=0 dy=0 dh=0 dv=0
EndChar

StartChar: l
Encoding: 108 108 103
Width: 333
VWidth: 0
Flags: W
LayerCount: 2
Fore
SplineSet
0 383.333007812 m 1
 0 800 l 1
 83.3330078125 800 l 1
 166.666992188 800 l 1
 166.666992188 383.333007812 l 1
 166.666992188 -33.3330078125 l 1
 83.3330078125 -33.3330078125 l 1
 0 -33.3330078125 l 1
 0 383.333007812 l 1
EndSplineSet
PairPos2: "kern-lut" uni000A dx=0 dy=0 dh=-167 dv=0 dx=0 dy=0 dh=0 dv=0
EndChar

StartChar: m
Encoding: 109 109 104
Width: 1000
VWidth: 0
Flags: W
LayerCount: 2
Fore
SplineSet
0 300 m 1
 0 633.333007812 l 1
 416.666992188 633.333007812 l 1
 833.333007812 633.333007812 l 1
 833.333007812 300 l 1
 833.333007812 -33.3330078125 l 1
 750 -33.3330078125 l 1
 666.666992188 -33.3330078125 l 1
 666.666992188 216.666992188 l 1
 666.666992188 466.666992188 l 1
 583.333007812 466.666992188 l 1
 500 466.666992188 l 1
 500 216.666992188 l 1
 500 -33.3330078125 l 1
 416.666992188 -33.3330078125 l 1
 333.333007812 -33.3330078125 l 1
 333.333007812 216.666992188 l 1
 333.333007812 466.666992188 l 1
 250 466.666992188 l 1
 166.666992188 466.666992188 l 1
 166.666992188 216.666992188 l 1
 166.666992188 -33.3330078125 l 1
 83.3330078125 -33.3330078125 l 1
 0 -33.3330078125 l 1
 0 300 l 1
EndSplineSet
PairPos2: "kern-lut" uni000A dx=0 dy=0 dh=-167 dv=0 dx=0 dy=0 dh=0 dv=0
EndChar

StartChar: n
Encoding: 110 110 105
Width: 667
VWidth: 0
Flags: W
LayerCount: 2
Fore
SplineSet
0 300 m 1
 0 633.333007812 l 1
 250 633.333007812 l 1
 500 633.333007812 l 1
 500 300 l 1
 500 -33.3330078125 l 1
 416.666992188 -33.3330078125 l 1
 333.333007812 -33.3330078125 l 1
 333.333007812 216.666992188 l 1
 333.333007812 466.666992188 l 1
 250 466.666992188 l 1
 166.666992188 466.666992188 l 1
 166.666992188 216.666992188 l 1
 166.666992188 -33.3330078125 l 1
 83.3330078125 -33.3330078125 l 1
 0 -33.3330078125 l 1
 0 300 l 1
EndSplineSet
PairPos2: "kern-lut" uni000A dx=0 dy=0 dh=-167 dv=0 dx=0 dy=0 dh=0 dv=0
EndChar

StartChar: o
Encoding: 111 111 106
Width: 667
VWidth: 0
Flags: W
LayerCount: 2
Fore
SplineSet
0 300 m 1
 0 633.333007812 l 1
 250 633.333007812 l 1
 500 633.333007812 l 1
 500 300 l 1
 500 -33.3330078125 l 1
 250 -33.3330078125 l 1
 0 -33.3330078125 l 1
 0 300 l 1
333.333007812 300 m 1
 333.333007812 466.666992188 l 1
 250 466.666992188 l 1
 166.666992188 466.666992188 l 1
 166.666992188 300 l 1
 166.666992188 133.333007812 l 1
 250 133.333007812 l 1
 333.333007812 133.333007812 l 1
 333.333007812 300 l 1
EndSplineSet
PairPos2: "kern-lut" uni000A dx=0 dy=0 dh=-167 dv=0 dx=0 dy=0 dh=0 dv=0
EndChar

StartChar: p
Encoding: 112 112 107
Width: 667
VWidth: 0
Flags: W
LayerCount: 2
Fore
SplineSet
0 216.666992188 m 1
 0 633.333007812 l 1
 250 633.333007812 l 1
 500 633.333007812 l 1
 500 300 l 1
 500 -33.3330078125 l 1
 333.333007812 -33.3330078125 l 1
 166.666992188 -33.3330078125 l 1
 166.666992188 -116.666992188 l 1
 166.666992188 -200 l 1
 83.3330078125 -200 l 1
 0 -200 l 1
 0 216.666992188 l 1
333.333007812 300 m 1
 333.333007812 466.666992188 l 1
 250 466.666992188 l 1
 166.666992188 466.666992188 l 1
 166.666992188 300 l 1
 166.666992188 133.333007812 l 1
 250 133.333007812 l 1
 333.333007812 133.333007812 l 1
 333.333007812 300 l 1
EndSplineSet
PairPos2: "kern-lut" uni000A dx=0 dy=0 dh=-167 dv=0 dx=0 dy=0 dh=0 dv=0
EndChar

StartChar: q
Encoding: 113 113 108
Width: 833
VWidth: 0
Flags: W
LayerCount: 2
Fore
SplineSet
166.666992188 550 m 1
 166.666992188 633.333007812 l 1
 333.333007812 633.333007812 l 1
 500 633.333007812 l 1
 500 300 l 1
 500 -33.3330078125 l 1
 583.333007812 -33.3330078125 l 1
 666.666992188 -33.3330078125 l 1
 666.666992188 -116.666992188 l 1
 666.666992188 -200 l 1
 500 -200 l 1
 333.333007812 -200 l 1
 333.333007812 -116.666992188 l 1
 333.333007812 -33.3330078125 l 1
 166.666992188 -33.3330078125 l 1
 0 -33.3330078125 l 1
 0 216.666992188 l 1
 0 466.666992188 l 1
 83.3330078125 466.666992188 l 1
 166.666992188 466.666992188 l 1
 166.666992188 550 l 1
333.333007812 300 m 1
 333.333007812 466.666992188 l 1
 250 466.666992188 l 1
 166.666992188 466.666992188 l 1
 166.666992188 300 l 1
 166.666992188 133.333007812 l 1
 250 133.333007812 l 1
 333.333007812 133.333007812 l 1
 333.333007812 300 l 1
EndSplineSet
PairPos2: "kern-lut" u dx=0 dy=0 dh=-167 dv=0 dx=0 dy=0 dh=0 dv=0
PairPos2: "kern-lut" r dx=0 dy=0 dh=-167 dv=0 dx=0 dy=0 dh=0 dv=0
PairPos2: "kern-lut" uni000A dx=0 dy=0 dh=-167 dv=0 dx=0 dy=0 dh=0 dv=0
EndChar

StartChar: r
Encoding: 114 114 109
Width: 667
VWidth: 0
Flags: W
LayerCount: 2
Fore
SplineSet
0 300 m 1
 0 633.333007812 l 1
 250 633.333007812 l 1
 500 633.333007812 l 1
 500 466.666992188 l 1
 500 300 l 1
 416.666992188 300 l 1
 333.333007812 300 l 1
 333.333007812 383.333007812 l 1
 333.333007812 466.666992188 l 1
 250 466.666992188 l 1
 166.666992188 466.666992188 l 1
 166.666992188 216.666992188 l 1
 166.666992188 -33.3330078125 l 1
 83.3330078125 -33.3330078125 l 1
 0 -33.3330078125 l 1
 0 300 l 1
EndSplineSet
PairPos2: "kern-lut" s dx=0 dy=0 dh=-167 dv=0 dx=0 dy=0 dh=0 dv=0
PairPos2: "kern-lut" uni000A dx=0 dy=0 dh=-167 dv=0 dx=0 dy=0 dh=0 dv=0
EndChar

StartChar: s
Encoding: 115 115 110
Width: 667
VWidth: 0
Flags: W
LayerCount: 2
Fore
SplineSet
166.666992188 383.333007812 m 1
 166.666992188 633.333007812 l 1
 333.333007812 633.333007812 l 1
 500 633.333007812 l 1
 500 550 l 1
 500 466.666992188 l 1
 416.666992188 466.666992188 l 1
 333.333007812 466.666992188 l 1
 333.333007812 216.666992188 l 1
 333.333007812 -33.3330078125 l 1
 166.666992188 -33.3330078125 l 1
 0 -33.3330078125 l 1
 0 50 l 1
 0 133.333007812 l 1
 83.3330078125 133.333007812 l 1
 166.666992188 133.333007812 l 1
 166.666992188 383.333007812 l 1
EndSplineSet
PairPos2: "kern-lut" uni000A dx=0 dy=0 dh=-167 dv=0 dx=0 dy=0 dh=0 dv=0
EndChar

StartChar: t
Encoding: 116 116 111
Width: 667
VWidth: 0
Flags: W
LayerCount: 2
Fore
SplineSet
166.666992188 716.666992188 m 1
 166.666992188 800 l 1
 250 800 l 1
 333.333007812 800 l 1
 333.333007812 716.666992188 l 1
 333.333007812 633.333007812 l 1
 416.666992188 633.333007812 l 1
 500 633.333007812 l 1
 500 550 l 1
 500 466.666992188 l 1
 416.666992188 466.666992188 l 1
 333.333007812 466.666992188 l 1
 333.333007812 300 l 1
 333.333007812 133.333007812 l 1
 416.666992188 133.333007812 l 1
 500 133.333007812 l 1
 500 50 l 1
 500 -33.3330078125 l 1
 333.333007812 -33.3330078125 l 1
 166.666992188 -33.3330078125 l 1
 166.666992188 216.666992188 l 1
 166.666992188 466.666992188 l 1
 83.3330078125 466.666992188 l 1
 0 466.666992188 l 1
 0 550 l 1
 0 633.333007812 l 1
 83.3330078125 633.333007812 l 1
 166.666992188 633.333007812 l 1
 166.666992188 716.666992188 l 1
EndSplineSet
PairPos2: "kern-lut" uni000A dx=0 dy=0 dh=-167 dv=0 dx=0 dy=0 dh=0 dv=0
EndChar

StartChar: u
Encoding: 117 117 112
Width: 667
VWidth: 0
Flags: W
LayerCount: 2
Fore
SplineSet
0 300 m 1
 0 633.333007812 l 1
 83.3330078125 633.333007812 l 1
 166.666992188 633.333007812 l 1
 166.666992188 383.333007812 l 1
 166.666992188 133.333007812 l 1
 250 133.333007812 l 1
 333.333007812 133.333007812 l 1
 333.333007812 383.333007812 l 1
 333.333007812 633.333007812 l 1
 416.666992188 633.333007812 l 1
 500 633.333007812 l 1
 500 300 l 1
 500 -33.3330078125 l 1
 250 -33.3330078125 l 1
 0 -33.3330078125 l 1
 0 300 l 1
EndSplineSet
PairPos2: "kern-lut" uni000A dx=0 dy=0 dh=-167 dv=0 dx=0 dy=0 dh=0 dv=0
EndChar

StartChar: v
Encoding: 118 118 113
Width: 667
VWidth: 0
Flags: W
LayerCount: 2
Fore
SplineSet
0 383.333007812 m 1
 0 633.333007812 l 1
 83.3330078125 633.333007812 l 1
 166.666992188 633.333007812 l 1
 166.666992188 466.666992188 l 1
 166.666992188 300 l 1
 250 300 l 1
 333.333007812 300 l 1
 333.333007812 466.666992188 l 1
 333.333007812 633.333007812 l 1
 416.666992188 633.333007812 l 1
 500 633.333007812 l 1
 500 383.333007812 l 1
 500 133.333007812 l 1
 416.666992188 133.333007812 l 1
 333.333007812 133.333007812 l 1
 333.333007812 50 l 1
 333.333007812 -33.3330078125 l 1
 250 -33.3330078125 l 1
 166.666992188 -33.3330078125 l 1
 166.666992188 50 l 1
 166.666992188 133.333007812 l 1
 83.3330078125 133.333007812 l 1
 0 133.333007812 l 1
 0 383.333007812 l 1
EndSplineSet
PairPos2: "kern-lut" uni000A dx=0 dy=0 dh=-167 dv=0 dx=0 dy=0 dh=0 dv=0
EndChar

StartChar: w
Encoding: 119 119 114
Width: 1000
VWidth: 0
Flags: W
LayerCount: 2
Fore
SplineSet
0 300 m 1
 0 633.333007812 l 1
 83.3330078125 633.333007812 l 1
 166.666992188 633.333007812 l 1
 166.666992188 383.333007812 l 1
 166.666992188 133.333007812 l 1
 250 133.333007812 l 1
 333.333007812 133.333007812 l 1
 333.333007812 383.333007812 l 1
 333.333007812 633.333007812 l 1
 416.666992188 633.333007812 l 1
 500 633.333007812 l 1
 500 383.333007812 l 1
 500 133.333007812 l 1
 583.333007812 133.333007812 l 1
 666.666992188 133.333007812 l 1
 666.666992188 383.333007812 l 1
 666.666992188 633.333007812 l 1
 750 633.333007812 l 1
 833.333007812 633.333007812 l 1
 833.333007812 300 l 1
 833.333007812 -33.3330078125 l 1
 416.666992188 -33.3330078125 l 1
 0 -33.3330078125 l 1
 0 300 l 1
EndSplineSet
PairPos2: "kern-lut" uni000A dx=0 dy=0 dh=-167 dv=0 dx=0 dy=0 dh=0 dv=0
EndChar

StartChar: x
Encoding: 120 120 115
Width: 667
VWidth: 0
Flags: W
LayerCount: 2
Fore
SplineSet
0 550 m 1
 0 633.333007812 l 1
 83.3330078125 633.333007812 l 1
 166.666992188 633.333007812 l 1
 166.666992188 550 l 1
 166.666992188 466.666992188 l 1
 250 466.666992188 l 1
 333.333007812 466.666992188 l 1
 333.333007812 550 l 1
 333.333007812 633.333007812 l 1
 416.666992188 633.333007812 l 1
 500 633.333007812 l 1
 500 550 l 1
 500 466.666992188 l 1
 416.666992188 466.666992188 l 1
 333.333007812 466.666992188 l 1
 333.333007812 383.333007812 l 1
 333.333007812 300 l 1
 416.666992188 300 l 1
 500 300 l 1
 500 133.333007812 l 1
 500 -33.3330078125 l 1
 416.666992188 -33.3330078125 l 1
 333.333007812 -33.3330078125 l 1
 333.333007812 133.333007812 l 1
 333.333007812 300 l 1
 250 300 l 1
 166.666992188 300 l 1
 166.666992188 133.333007812 l 1
 166.666992188 -33.3330078125 l 1
 83.3330078125 -33.3330078125 l 1
 0 -33.3330078125 l 1
 0 133.333007812 l 1
 0 300 l 1
 83.3330078125 300 l 1
 166.666992188 300 l 1
 166.666992188 383.333007812 l 1
 166.666992188 466.666992188 l 1
 83.3330078125 466.666992188 l 1
 0 466.666992188 l 1
 0 550 l 1
EndSplineSet
PairPos2: "kern-lut" uni000A dx=0 dy=0 dh=-167 dv=0 dx=0 dy=0 dh=0 dv=0
EndChar

StartChar: y
Encoding: 121 121 116
Width: 667
VWidth: 0
Flags: W
LayerCount: 2
Fore
SplineSet
0 383.333007812 m 1
 0 633.333007812 l 1
 83.3330078125 633.333007812 l 1
 166.666992188 633.333007812 l 1
 166.666992188 383.333007812 l 1
 166.666992188 133.333007812 l 1
 250 133.333007812 l 1
 333.333007812 133.333007812 l 1
 333.333007812 383.333007812 l 1
 333.333007812 633.333007812 l 1
 416.666992188 633.333007812 l 1
 500 633.333007812 l 1
 500 300 l 1
 500 -33.3330078125 l 1
 416.666992188 -33.3330078125 l 1
 333.333007812 -33.3330078125 l 1
 333.333007812 -116.666992188 l 1
 333.333007812 -200 l 1
 166.666992188 -200 l 1
 0 -200 l 1
 0 -116.666992188 l 1
 0 -33.3330078125 l 1
 83.3330078125 -33.3330078125 l 1
 166.666992188 -33.3330078125 l 1
 166.666992188 50 l 1
 166.666992188 133.333007812 l 1
 83.3330078125 133.333007812 l 1
 0 133.333007812 l 1
 0 383.333007812 l 1
EndSplineSet
PairPos2: "kern-lut" uni000A dx=0 dy=0 dh=-167 dv=0 dx=0 dy=0 dh=0 dv=0
EndChar

StartChar: z
Encoding: 122 122 117
Width: 667
VWidth: 0
Flags: W
LayerCount: 2
Fore
SplineSet
0 550 m 1
 0 633.333007812 l 1
 166.666992188 633.333007812 l 1
 333.333007812 633.333007812 l 1
 333.333007812 383.333007812 l 1
 333.333007812 133.333007812 l 1
 416.666992188 133.333007812 l 1
 500 133.333007812 l 1
 500 50 l 1
 500 -33.3330078125 l 1
 333.333007812 -33.3330078125 l 1
 166.666992188 -33.3330078125 l 1
 166.666992188 216.666992188 l 1
 166.666992188 466.666992188 l 1
 83.3330078125 466.666992188 l 1
 0 466.666992188 l 1
 0 550 l 1
EndSplineSet
PairPos2: "kern-lut" uni000A dx=0 dy=0 dh=-167 dv=0 dx=0 dy=0 dh=0 dv=0
EndChar

StartChar: braceleft
Encoding: 123 123 118
Width: 667
VWidth: 0
Flags: W
LayerCount: 2
Fore
SplineSet
166.666992188 633.333007812 m 1
 166.666992188 800 l 1
 333.333007812 800 l 1
 500 800 l 1
 500 716.666992188 l 1
 500 633.333007812 l 1
 416.666992188 633.333007812 l 1
 333.333007812 633.333007812 l 1
 333.333007812 383.333007812 l 1
 333.333007812 133.333007812 l 1
 416.666992188 133.333007812 l 1
 500 133.333007812 l 1
 500 50 l 1
 500 -33.3330078125 l 1
 333.333007812 -33.3330078125 l 1
 166.666992188 -33.3330078125 l 1
 166.666992188 133.333007812 l 1
 166.666992188 300 l 1
 83.3330078125 300 l 1
 0 300 l 1
 0 383.333007812 l 1
 0 466.666992188 l 1
 83.3330078125 466.666992188 l 1
 166.666992188 466.666992188 l 1
 166.666992188 633.333007812 l 1
EndSplineSet
PairPos2: "kern-lut" uni000A dx=0 dy=0 dh=-167 dv=0 dx=0 dy=0 dh=0 dv=0
EndChar

StartChar: bar
Encoding: 124 124 119
Width: 333
VWidth: 0
Flags: W
LayerCount: 2
Fore
SplineSet
0 633.333007812 m 1
 0 800 l 1
 83.3330078125 800 l 1
 166.666992188 800 l 1
 166.666992188 633.333007812 l 1
 166.666992188 466.666992188 l 1
 83.3330078125 466.666992188 l 1
 0 466.666992188 l 1
 0 633.333007812 l 1
0 133.333007812 m 1
 0 300 l 1
 83.3330078125 300 l 1
 166.666992188 300 l 1
 166.666992188 133.333007812 l 1
 166.666992188 -33.3330078125 l 1
 83.3330078125 -33.3330078125 l 1
 0 -33.3330078125 l 1
 0 133.333007812 l 1
EndSplineSet
PairPos2: "kern-lut" uni000A dx=0 dy=0 dh=-167 dv=0 dx=0 dy=0 dh=0 dv=0
EndChar

StartChar: braceright
Encoding: 125 125 120
Width: 667
VWidth: 0
Flags: W
LayerCount: 2
Fore
SplineSet
0 716.666992188 m 1
 0 800 l 1
 166.666992188 800 l 1
 333.333007812 800 l 1
 333.333007812 633.333007812 l 1
 333.333007812 466.666992188 l 1
 416.666992188 466.666992188 l 1
 500 466.666992188 l 1
 500 383.333007812 l 1
 500 300 l 1
 416.666992188 300 l 1
 333.333007812 300 l 1
 333.333007812 133.333007812 l 1
 333.333007812 -33.3330078125 l 1
 166.666992188 -33.3330078125 l 1
 0 -33.3330078125 l 1
 0 50 l 1
 0 133.333007812 l 1
 83.3330078125 133.333007812 l 1
 166.666992188 133.333007812 l 1
 166.666992188 383.333007812 l 1
 166.666992188 633.333007812 l 1
 83.3330078125 633.333007812 l 1
 0 633.333007812 l 1
 0 716.666992188 l 1
EndSplineSet
PairPos2: "kern-lut" uni000A dx=0 dy=0 dh=-167 dv=0 dx=0 dy=0 dh=0 dv=0
EndChar

StartChar: asciitilde
Encoding: 126 126 121
Width: 667
VWidth: 0
Flags: W
LayerCount: 2
Fore
SplineSet
0 383.333007812 m 1
 0 466.666992188 l 1
 166.666992188 466.666992188 l 1
 333.333007812 466.666992188 l 1
 333.333007812 383.333007812 l 1
 333.333007812 300 l 1
 416.666992188 300 l 1
 500 300 l 1
 500 216.666992188 l 1
 500 133.333007812 l 1
 333.333007812 133.333007812 l 1
 166.666992188 133.333007812 l 1
 166.666992188 216.666992188 l 1
 166.666992188 300 l 1
 83.3330078125 300 l 1
 0 300 l 1
 0 383.333007812 l 1
EndSplineSet
PairPos2: "kern-lut" uni000A dx=0 dy=0 dh=-167 dv=0 dx=0 dy=0 dh=0 dv=0
EndChar

StartChar: uni007F
Encoding: 127 127 122
Width: 1000
VWidth: 0
Flags: W
LayerCount: 2
Fore
SplineSet
333.333007812 716.666992188 m 1
 333.333007812 800 l 1
 416.666992188 800 l 1
 500 800 l 1
 500 716.666992188 l 1
 500 633.333007812 l 1
 583.333007812 633.333007812 l 1
 666.666992188 633.333007812 l 1
 666.666992188 550 l 1
 666.666992188 466.666992188 l 1
 750 466.666992188 l 1
 833.333007812 466.666992188 l 1
 833.333007812 216.666992188 l 1
 833.333007812 -33.3330078125 l 1
 416.666992188 -33.3330078125 l 1
 0 -33.3330078125 l 1
 0 216.666992188 l 1
 0 466.666992188 l 1
 83.3330078125 466.666992188 l 1
 166.666992188 466.666992188 l 1
 166.666992188 550 l 1
 166.666992188 633.333007812 l 1
 250 633.333007812 l 1
 333.333007812 633.333007812 l 1
 333.333007812 716.666992188 l 1
500 550 m 1
 500 633.333007812 l 1
 416.666992188 633.333007812 l 1
 333.333007812 633.333007812 l 1
 333.333007812 550 l 1
 333.333007812 466.666992188 l 1
 250 466.666992188 l 1
 166.666992188 466.666992188 l 1
 166.666992188 300 l 1
 166.666992188 133.333007812 l 1
 250 133.333007812 l 1
 333.333007812 133.333007812 l 1
 333.333007812 216.666992188 l 1
 333.333007812 300 l 1
 416.666992188 300 l 1
 500 300 l 1
 500 216.666992188 l 1
 500 133.333007812 l 1
 583.333007812 133.333007812 l 1
 666.666992188 133.333007812 l 1
 666.666992188 300 l 1
 666.666992188 466.666992188 l 1
 583.333007812 466.666992188 l 1
 500 466.666992188 l 1
 500 550 l 1
EndSplineSet
PairPos2: "kern-lut" uni000A dx=0 dy=0 dh=-167 dv=0 dx=0 dy=0 dh=0 dv=0
EndChar
